<svg width="122" height="200" viewBox="0 0 122 200" fill="none" xmlns="http://www.w3.org/2000/svg">
<path opacity="0.5" d="M24.396 2.28516H97.1903V26.1426H24.396V2.28516Z" fill="#87C6FF"/>
<path d="M60.789 29.6982V29.4434H27.466C25.6806 29.4431 23.9139 29.8072 22.274 30.5134C20.6342 31.2195 19.1557 32.2529 17.9291 33.5502C16.7024 34.8475 15.7534 36.3815 15.1401 38.0583C14.5269 39.7351 14.2622 41.5194 14.3623 43.302L22.2802 184.054C22.4683 187.403 23.9316 190.552 26.3694 192.856C28.8072 195.159 32.0346 196.442 35.3886 196.44H60.7984V196.695H86.2082C89.5606 196.695 92.7856 195.411 95.2214 193.107C97.6572 190.804 99.1191 187.656 99.3072 184.309L107.216 43.5568C107.316 41.7746 107.051 39.9907 106.438 38.3142C105.825 36.6378 104.877 35.104 103.65 33.8067C102.424 32.5095 100.946 31.476 99.3071 30.7696C97.6678 30.0631 95.9017 29.6986 94.1167 29.6982H60.789Z" fill="white"/>
<path opacity="0.5" d="M107.216 51.2653L107.056 54.021H50.5784C39.8672 54.021 31.1802 62.2928 31.1802 72.4992V196.259C26.2303 194.669 22.5875 190.347 22.2761 185.119L14.3629 51.0247C13.9383 43.8571 19.9262 37.8125 27.4619 37.8125H60.7849V38.0532H94.1126C101.653 38.0626 107.641 44.0977 107.216 51.2653Z" fill="#B3B3B3"/>
<g opacity="0.5">
<path d="M96.3328 70.4346C96.8793 65.1098 96.5175 60.7106 95.5246 60.6087C94.5317 60.5068 93.2837 64.7408 92.7372 70.0656C92.1907 75.3904 92.5526 79.7896 93.5455 79.8915C94.5384 79.9935 95.7863 75.7594 96.3328 70.4346Z" fill="#B3B3B3"/>
<path d="M94.3066 89.2917C94.5794 86.6293 93.9956 84.3885 93.0027 84.2867C92.0098 84.185 90.9838 86.2609 90.711 88.9233C90.4382 91.5858 91.022 93.8266 92.0149 93.9283C93.0078 94.0301 94.0338 91.9542 94.3066 89.2917Z" fill="#B3B3B3"/>
</g>
<path d="M86.1991 200.001H86.1661L60.7563 199.746H35.3889C31.1938 199.743 27.1585 198.136 24.1099 195.254C21.0613 192.372 19.2302 188.433 18.9917 184.245L11.0644 43.4883C10.9392 41.2571 11.2706 39.0238 12.0383 36.9251C12.8061 34.8264 13.994 32.9064 15.5294 31.2827C17.0648 29.659 18.9153 28.3656 20.9678 27.4818C23.0204 26.598 25.2316 26.1423 27.4663 26.1426H64.0924V26.3974H94.117C96.3513 26.3977 98.5621 26.8539 100.614 27.738C102.666 28.6221 104.516 29.9156 106.051 31.5392C107.586 33.1629 108.773 35.0826 109.541 37.181C110.308 39.2794 110.639 41.5123 110.514 43.7431L102.601 184.5C102.363 188.689 100.531 192.628 97.4812 195.51C94.4316 198.392 90.3951 199.999 86.1991 200.001ZM27.4663 32.7487C26.1294 32.7484 24.8064 33.0212 23.5786 33.5502C22.3508 34.0793 21.2439 34.8535 20.3259 35.8255C19.4079 36.7974 18.698 37.9466 18.2397 39.2026C17.7815 40.4586 17.5846 41.7949 17.661 43.1297L25.5789 183.872C25.7211 186.378 26.8167 188.734 28.6409 190.457C30.465 192.18 32.8795 193.14 35.3889 193.14H60.7988L86.2275 193.394C88.7328 193.389 91.1414 192.426 92.9605 190.704C94.7796 188.981 95.8719 186.628 96.0139 184.127L103.918 43.3703C103.994 42.0355 103.797 40.6992 103.339 39.4432C102.881 38.1872 102.171 37.0381 101.253 36.0661C100.335 35.0942 99.2278 34.32 98 33.7909C96.7722 33.2618 95.4492 32.9891 94.1123 32.9893H57.4863V32.7487H27.4663Z" fill="#2E2E2E"/>
<path d="M100.506 30.4635H21.0913V0H100.506V30.4635ZM27.6974 23.8574H93.8998V6.60608H27.6974V23.8574Z" fill="#2E2E2E"/>
<path d="M112.262 27.0938C110.629 22.3091 105.656 19.0391 99.9936 19.0391H21.5747C15.9123 19.0391 10.953 22.3091 9.30621 27.0938L4.62061 40.8627H116.967L112.262 27.0938Z" fill="#E0F0FF"/>
<path d="M121.585 44.168H0L6.19556 26.0296C8.29535 19.8954 14.4768 15.7383 21.5736 15.7383H100.011C107.089 15.7383 113.29 19.8718 115.389 26.0296L121.585 44.168ZM9.23436 37.562H112.346L109.137 28.1624C107.967 24.7367 104.216 22.3444 100.011 22.3444H21.5736C17.3693 22.3444 13.618 24.7367 12.4478 28.1624L9.23436 37.562Z" fill="#2E2E2E"/>
<path d="M55.2265 42.3867V77.6962H76.7199V121.065H44.8644V77.6962H55.2265" fill="#64B5FF"/>
<path d="M76.7199 111.386V120.554H44.8644V77.1855H46.8085C47.6342 81.6541 48.7572 86.0471 50.6353 90.1712C55.4577 100.736 65.4565 108.706 76.7199 111.386Z" fill="#148FFF"/>
<path d="M80.0225 124.368H41.5609V74.3932H51.9419V42.3867H58.548V74.3932H80.0414L80.0225 124.368ZM48.167 117.762H73.4164V80.9993H48.167V117.762Z" fill="#2E2E2E"/>
</svg>
