<svg width="305" height="208" viewBox="0 0 305 208" fill="none" xmlns="http://www.w3.org/2000/svg">
<path d="M301.132 48.5509V162.452C301.145 164.499 300.753 166.527 299.979 168.422C299.205 170.316 298.063 172.038 296.621 173.49C295.178 174.941 293.463 176.093 291.574 176.879C289.684 177.665 287.658 178.07 285.612 178.07H256.705L241.863 201.351C241.699 201.664 241.452 201.926 241.149 202.108C240.846 202.291 240.5 202.388 240.146 202.388C239.793 202.388 239.446 202.291 239.143 202.108C238.841 201.926 238.594 201.664 238.429 201.351L224.558 178.07H99.0352C94.9189 178.07 90.9712 176.435 88.0605 173.524C85.1498 170.613 83.5146 166.666 83.5146 162.549V48.5509C83.5146 44.4346 85.1498 40.4869 88.0605 37.5762C90.9712 34.6656 94.9189 33.0304 99.0352 33.0304H285.554C287.597 33.0227 289.621 33.4185 291.511 34.1951C293.401 34.9716 295.118 36.1136 296.566 37.5556C298.013 38.9976 299.162 40.7112 299.945 42.598C300.729 44.4849 301.132 46.5078 301.132 48.5509Z" fill="white"/>
<path d="M231.832 121.428V34.7848L219.047 33.3685L212.528 144.729L204.303 148.977L197.512 150.122L183.136 149.695L186.784 150.471L162.106 145.33L100.451 147.27C98.5396 147.265 96.7078 146.506 95.3529 145.159C93.998 143.811 93.2294 141.983 93.2141 140.072V17.848C93.2086 16.1856 93.4773 14.5338 94.0095 12.959C90.8005 13.9177 87.9877 15.8886 85.9912 18.5775C83.9946 21.2664 82.9214 24.529 82.9317 27.8781V141.78C82.9317 145.896 84.5669 149.844 87.4776 152.754C90.3882 155.665 94.336 157.3 98.4523 157.3H128.989L174.367 157.203L190.237 157.358H209.017C216.389 157.358 228.165 157.358 231.832 150.898C235.499 144.438 231.832 132.137 231.832 121.428Z" fill="#B3B3B3"/>
<path d="M103.846 155.158C109.397 155.158 113.896 150.658 113.896 145.108C113.896 139.558 109.397 135.059 103.846 135.059C98.2962 135.059 93.7969 139.558 93.7969 145.108C93.7969 150.658 98.2962 155.158 103.846 155.158Z" fill="#B3B3B3"/>
<path d="M121.752 141.172C124.227 141.172 126.234 139.166 126.234 136.691C126.234 134.215 124.227 132.209 121.752 132.209C119.277 132.209 117.271 134.215 117.271 136.691C117.271 139.166 119.277 141.172 121.752 141.172Z" fill="#B3B3B3"/>
<path d="M213.925 146.862C215.843 146.862 217.398 145.308 217.398 143.39C217.398 141.472 215.843 139.917 213.925 139.917C212.007 139.917 210.452 141.472 210.452 143.39C210.452 145.308 212.007 146.862 213.925 146.862Z" fill="#B3B3B3"/>
<path d="M281.789 74.1582H116.708" stroke="#2E2E2E" stroke-width="4" stroke-miterlimit="10" stroke-linecap="round"/>
<path d="M281.788 100.564H219.531" stroke="#2E2E2E" stroke-width="4" stroke-miterlimit="10" stroke-linecap="round"/>
<path d="M281.789 126.97H188.491" stroke="#2E2E2E" stroke-width="4" stroke-miterlimit="10" stroke-linecap="round"/>
<path d="M302.275 41.5666V167.225C302.275 169.798 301.253 172.265 299.434 174.084C297.615 175.903 295.148 176.925 292.575 176.925H257.828L241.241 203L225.72 176.925H94.2609C91.6882 176.925 89.2209 175.903 87.4017 174.084C85.5825 172.265 84.5605 169.798 84.5605 167.225V47.4838C84.5605 43.3675 86.1957 39.4197 89.1064 36.5091C92.0171 33.5984 95.9648 31.9632 100.081 31.9632H292.497C295.067 31.9425 297.539 32.9421 299.372 34.7425C301.206 36.543 302.25 38.9972 302.275 41.5666Z" stroke="#2E2E2E" stroke-width="5" stroke-miterlimit="10"/>
<path d="M4.125 19.6849V133.548C4.15062 137.673 5.80734 141.62 8.73343 144.528C11.6595 147.436 15.6173 149.068 19.7426 149.068H48.5914L63.4135 172.349C63.5967 172.642 63.8513 172.883 64.1533 173.05C64.4554 173.218 64.795 173.305 65.1402 173.305C65.4855 173.305 65.825 173.218 66.1271 173.05C66.4291 172.883 66.6837 172.642 66.8669 172.349L80.7384 149.068H206.28C210.397 149.068 214.344 147.433 217.255 144.522C220.166 141.612 221.801 137.664 221.801 133.548V19.7044C221.801 15.588 220.166 11.6403 217.255 8.72966C214.344 5.81899 210.397 4.18379 206.28 4.18379H19.7232C17.6801 4.17357 15.6551 4.56684 13.7644 5.34103C11.8736 6.11522 10.1543 7.2551 8.70514 8.69528C7.25595 10.1355 6.10536 11.8476 5.31939 13.7335C4.53342 15.6193 4.12753 17.6418 4.125 19.6849Z" fill="white"/>
<path d="M103.748 135.704H200.848C202.773 135.704 204.618 134.94 205.979 133.579C207.34 132.218 208.104 130.373 208.104 128.449V6.22409C208.073 5.71739 208.187 5.21233 208.434 4.76864C208.681 4.32495 209.049 3.96119 209.496 3.72038C209.943 3.47958 210.45 3.3718 210.956 3.4098C211.462 3.4478 211.947 3.62998 212.353 3.93481C214.233 5.38666 215.754 7.25059 216.8 9.38306C217.846 11.5155 218.389 13.8596 218.387 16.2349V143.077C218.387 143.787 218.104 144.468 217.602 144.97C217.1 145.472 216.419 145.754 215.709 145.754H172.31L126.932 145.56L111.062 145.715H82.2324" fill="#B3B3B3"/>
<path d="M201.43 137.877C206.981 137.877 211.48 133.378 211.48 127.828C211.48 122.278 206.981 117.778 201.43 117.778C195.88 117.778 191.381 122.278 191.381 127.828C191.381 133.378 195.88 137.877 201.43 137.877Z" fill="#B3B3B3"/>
<path d="M183.505 123.899C185.98 123.899 187.987 121.892 187.987 119.417C187.987 116.942 185.98 114.936 183.505 114.936C181.03 114.936 179.023 116.942 179.023 119.417C179.023 121.892 181.03 123.899 183.505 123.899Z" fill="#B3B3B3"/>
<path d="M105.204 140.418C109.5 140.418 112.983 136.935 112.983 132.638C112.983 128.341 109.5 124.858 105.204 124.858C100.907 124.858 97.4238 128.341 97.4238 132.638C97.4238 136.935 100.907 140.418 105.204 140.418Z" fill="#B3B3B3"/>
<path d="M91.3321 129.59C93.25 129.59 94.8048 128.035 94.8048 126.117C94.8048 124.199 93.25 122.645 91.3321 122.645C89.4142 122.645 87.8594 124.199 87.8594 126.117C87.8594 128.035 89.4142 129.59 91.3321 129.59Z" fill="#B3B3B3"/>
<path d="M23.4873 45.2539H188.568" stroke="#2E2E2E" stroke-width="4" stroke-miterlimit="10" stroke-linecap="round"/>
<path d="M23.4873 71.6592H85.7442" stroke="#2E2E2E" stroke-width="4" stroke-miterlimit="10" stroke-linecap="round"/>
<path d="M23.4873 98.0576H116.785" stroke="#2E2E2E" stroke-width="4" stroke-miterlimit="10" stroke-linecap="round"/>
<path d="M3 5.6385V145.324C2.99999 145.674 3.06938 146.021 3.20416 146.345C3.33894 146.669 3.53646 146.963 3.78533 147.21C4.03419 147.457 4.32949 147.652 4.65421 147.785C4.97892 147.917 5.32663 147.984 5.6773 147.981H45.9726C46.4221 147.981 46.8643 148.095 47.2579 148.312C47.6514 148.529 47.9835 148.843 48.223 149.223L64.1122 174.095L78.8761 149.32C79.1149 148.926 79.4506 148.599 79.8514 148.372C80.2522 148.144 80.7046 148.023 81.1654 148.02H218.115C218.466 148.023 218.813 147.956 219.138 147.824C219.463 147.691 219.758 147.496 220.007 147.249C220.256 147.002 220.453 146.708 220.588 146.384C220.723 146.06 220.792 145.713 220.792 145.362V5.6773C220.792 4.96723 220.51 4.28625 220.008 3.78416C219.506 3.28207 218.825 3 218.115 3H5.6773C4.97391 2.99993 4.29874 3.27667 3.79775 3.77039C3.29676 4.26412 3.01019 4.93518 3 5.6385V5.6385Z" stroke="#2E2E2E" stroke-width="5" stroke-miterlimit="10"/>
</svg>
