<svg width="251" height="206" viewBox="0 0 251 206" fill="none" xmlns="http://www.w3.org/2000/svg">
<path d="M30.55 167.868L39.0331 200.427C39.1217 200.766 39.2762 201.084 39.488 201.363C39.6997 201.641 39.9645 201.876 40.267 202.052C40.5695 202.228 40.9039 202.343 41.2509 202.39C41.5979 202.436 41.9507 202.414 42.289 202.324L140.712 176.65C141.392 176.471 141.974 176.03 142.33 175.422C142.686 174.815 142.786 174.091 142.608 173.409C142.46 172.826 142.117 172.31 141.637 171.946C141.156 171.583 140.567 171.393 139.965 171.408C110.841 172.454 68.1716 188.419 34.6571 165.046C34.2151 164.725 33.6843 164.548 33.138 164.541C32.5916 164.534 32.0565 164.696 31.6062 165.006C31.1559 165.315 30.8125 165.757 30.6234 166.269C30.4343 166.782 30.4086 167.341 30.55 167.868Z" fill="white"/>
<path d="M41.5886 202.51L141.405 176.472C142.443 176.202 143.065 175.141 142.794 174.104L107.065 37.1319C106.794 36.0944 105.733 35.4726 104.696 35.7433L4.87895 61.7808C3.84137 62.0515 3.21965 63.112 3.4903 64.1496L39.2198 201.121C39.4905 202.159 40.551 202.781 41.5886 202.51Z" fill="white"/>
<path d="M66.5571 165.087C67.9181 165.087 69.0214 163.983 69.0214 162.622C69.0214 161.261 67.9181 160.158 66.5571 160.158C65.1961 160.158 64.0928 161.261 64.0928 162.622C64.0928 163.983 65.1961 165.087 66.5571 165.087Z" fill="white"/>
<path d="M54.2977 177.429C58.1414 177.429 61.2574 174.313 61.2574 170.47C61.2574 166.626 58.1414 163.51 54.2977 163.51C50.4539 163.51 47.3379 166.626 47.3379 170.47C47.3379 174.313 50.4539 177.429 54.2977 177.429Z" fill="white"/>
<path d="M30.55 167.868L39.0331 200.427C39.1217 200.766 39.2762 201.084 39.488 201.363C39.6997 201.641 39.9645 201.876 40.267 202.052C40.5695 202.228 40.9039 202.343 41.2509 202.39C41.5979 202.436 41.9507 202.414 42.289 202.324L140.712 176.65C141.392 176.471 141.974 176.03 142.33 175.422C142.686 174.815 142.786 174.091 142.608 173.409C142.46 172.826 142.117 172.31 141.637 171.946C141.156 171.583 140.567 171.393 139.965 171.408C110.841 172.454 68.1716 188.419 34.6571 165.046C34.2151 164.725 33.6843 164.548 33.138 164.541C32.5916 164.534 32.0565 164.696 31.6062 165.006C31.1559 165.315 30.8125 165.757 30.6234 166.269C30.4343 166.782 30.4086 167.341 30.55 167.868Z" fill="#B3B3B3"/>
<path d="M41.5886 202.51L141.405 176.472C142.443 176.202 143.065 175.141 142.794 174.104L107.065 37.1319C106.794 36.0944 105.733 35.4726 104.696 35.7433L4.87895 61.7808C3.84137 62.0515 3.21965 63.112 3.4903 64.1496L39.2198 201.121C39.4905 202.159 40.551 202.781 41.5886 202.51Z" stroke="#2E2E2E" stroke-width="5" stroke-miterlimit="10"/>
<path d="M66.6619 164.788C67.9487 164.788 68.9918 163.745 68.9918 162.458C68.9918 161.171 67.9487 160.128 66.6619 160.128C65.3752 160.128 64.332 161.171 64.332 162.458C64.332 163.745 65.3752 164.788 66.6619 164.788Z" fill="#B3B3B3"/>
<path d="M55.1014 176.42C58.7225 176.42 61.658 173.484 61.658 169.863C61.658 166.242 58.7225 163.307 55.1014 163.307C51.4804 163.307 48.5449 166.242 48.5449 169.863C48.5449 173.484 51.4804 176.42 55.1014 176.42Z" fill="#B3B3B3"/>
<path d="M94.9811 66.3223L36.6445 81.4366" stroke="#2E2E2E" stroke-width="4" stroke-miterlimit="10"/>
<path opacity="0.5" d="M98.6989 78.0527L71.9053 84.4898" stroke="#2E2E2E" stroke-width="4" stroke-miterlimit="10"/>
<path d="M137.113 106.217L144.73 106.904" stroke="white" stroke-width="1.70653" stroke-miterlimit="10" stroke-linecap="round"/>
<path d="M227.919 165.3V23.0723H89.5303V197.604H196.376L227.919 165.3Z" fill="white"/>
<path d="M216.582 196.818H248.498V22.0176H241.598" stroke="#2E2E2E" stroke-width="5" stroke-miterlimit="10"/>
<path d="M226.169 20.459V162.686L194.611 194.991H175.017L214.595 155.413V20.459H226.169Z" fill="#B3B3B3"/>
<path d="M213.462 68.7882C217.735 68.7882 221.198 65.3245 221.198 61.0518C221.198 56.7791 217.735 53.3154 213.462 53.3154C209.189 53.3154 205.726 56.7791 205.726 61.0518C205.726 65.3245 209.189 68.7882 213.462 68.7882Z" fill="#B3B3B3"/>
<path d="M199.661 58.0348C201.566 58.0348 203.111 56.4902 203.111 54.5848C203.111 52.6794 201.566 51.1348 199.661 51.1348C197.756 51.1348 196.211 52.6794 196.211 54.5848C196.211 56.4902 197.756 58.0348 199.661 58.0348Z" fill="#B3B3B3"/>
<path d="M228.5 164.136V21.9092H90.1113V196.441H196.942L228.5 164.136Z" stroke="#2E2E2E" stroke-width="5" stroke-miterlimit="10"/>
<path d="M109.888 21.3254V18.5624C109.888 14.435 111.527 10.4766 114.446 7.55813C117.364 4.63961 121.323 3.00001 125.45 3.00001C127.494 2.99804 129.519 3.39924 131.408 4.18062C133.297 4.96201 135.013 6.10826 136.459 7.55375C137.904 8.99924 139.051 10.7156 139.832 12.6046C140.613 14.4936 141.014 16.5182 141.013 18.5624V55.6464C141.013 57.4802 140.651 59.296 139.95 60.9903C139.248 62.6845 138.219 64.2239 136.922 65.5206C135.626 66.8174 134.086 67.846 132.392 68.5477C130.698 69.2495 128.882 69.6107 127.048 69.6107C123.345 69.6107 119.793 68.1395 117.174 65.5206C114.555 62.9018 113.084 59.3499 113.084 55.6464V45.4606" stroke="#2E2E2E" stroke-width="5" stroke-miterlimit="10"/>
<path d="M115.41 94.4453H188.129" stroke="#2E2E2E" stroke-width="4" stroke-miterlimit="10"/>
<path d="M115.41 109.409H150.791" stroke="#2E2E2E" stroke-width="4" stroke-miterlimit="10"/>
<path d="M115.41 124.216H176.181" stroke="#2E2E2E" stroke-width="4" stroke-miterlimit="10"/>
</svg>
