<svg width="202" height="202" viewBox="0 0 202 202" fill="none" xmlns="http://www.w3.org/2000/svg">
<path d="M100.999 199.485C155.386 199.485 199.476 155.396 199.476 101.009C199.476 46.6224 155.386 2.5332 100.999 2.5332C46.6127 2.5332 2.52344 46.6224 2.52344 101.009C2.52344 155.396 46.6127 199.485 100.999 199.485Z" fill="#85C4FF"/>
<path d="M12.2762 101.008C12.2763 75.7371 21.992 51.433 39.4126 33.1255C56.8332 14.818 80.6253 3.90839 105.866 2.65434C104.254 2.57306 102.628 2.53242 100.989 2.53242C87.9734 2.40022 75.0608 4.84961 62.9978 9.73895C50.9347 14.6283 39.9607 21.8606 30.7102 31.0176C21.4597 40.1746 14.1163 51.0746 9.10473 63.0873C4.09311 75.1001 1.5127 87.9872 1.5127 101.003C1.5127 114.02 4.09311 126.907 9.10473 138.919C14.1163 150.932 21.4597 161.832 30.7102 170.989C39.9607 180.146 50.9347 187.379 62.9978 192.268C75.0608 197.157 87.9734 199.607 100.989 199.474C102.621 199.474 104.247 199.434 105.866 199.352C80.627 198.098 56.8364 187.19 39.4161 168.885C21.9957 150.58 12.279 126.278 12.2762 101.008Z" fill="#B7DDFF"/>
<path d="M101 201.25H101C127.579 201.22 153.061 190.649 171.855 171.855C190.649 153.061 201.22 127.579 201.25 101V101C201.25 81.1725 195.37 61.7901 184.355 45.3041C173.339 28.8181 157.682 15.9688 139.364 8.38112C121.046 0.793437 100.889 -1.19185 81.4422 2.67632C61.9956 6.54449 44.1328 16.0924 30.1126 30.1126C16.0924 44.1328 6.54449 61.9956 2.67632 81.4422C-1.19185 100.889 0.793437 121.046 8.38112 139.364C15.9688 157.682 28.8181 173.339 45.3041 184.355C61.7901 195.37 81.1725 201.25 101 201.25ZM47.2752 20.6053C63.1778 9.97954 81.8742 4.30806 101 4.30806C126.639 4.33494 151.22 14.5318 169.349 32.6612C187.478 50.7906 197.675 75.3716 197.702 101.01C197.702 120.136 192.031 138.833 181.405 154.735C170.779 170.638 155.676 183.032 138.006 190.351C120.336 197.67 100.893 199.585 82.1344 195.854C63.376 192.123 46.1453 182.913 32.6213 169.389C19.0973 155.865 9.88727 138.634 6.156 119.876C2.42473 101.117 4.33975 81.6739 11.6589 64.0039C18.9781 46.3339 31.3726 31.2311 47.2752 20.6053Z" fill="#2E2E2E" stroke="#2E2E2E" stroke-width="0.5"/>
<path d="M101.001 181.93C146.051 181.93 182.571 145.41 182.571 100.36C182.571 55.3095 146.051 18.7891 101.001 18.7891C55.9506 18.7891 19.4302 55.3095 19.4302 100.36C19.4302 145.41 55.9506 181.93 101.001 181.93Z" fill="#E8E8E8"/>
<path d="M25.922 110.735C25.9284 93.5481 31.3636 76.802 41.4518 62.887C51.54 48.9719 65.7658 38.599 82.099 33.2484C98.4322 27.8979 116.038 27.8432 132.404 33.0922C148.77 38.3412 163.06 48.6255 173.235 62.4777C168.033 52.5121 160.828 43.7292 152.071 36.6798C143.315 29.6305 133.196 24.4669 122.35 21.5131C111.503 18.5593 100.163 17.879 89.0415 19.5149C77.9197 21.1508 67.2561 25.0676 57.7196 31.0194C48.1831 36.9713 39.9795 44.8299 33.6237 54.1021C27.2679 63.3742 22.8969 73.8599 20.7851 84.9012C18.6732 95.9425 18.866 107.301 21.3514 118.264C23.8369 129.228 28.5612 139.559 35.2281 148.61C29.0954 136.928 25.9012 123.929 25.922 110.735Z" fill="#DADADA"/>
<path d="M98.8046 43.82C102.076 43.82 102.076 38.7402 98.8046 38.7402C95.5332 38.7402 95.5332 43.82 98.8046 43.82Z" fill="#2E2E2E"/>
<path d="M103.68 174.459C106.951 174.459 106.951 169.379 103.68 169.379C100.409 169.379 100.409 174.459 103.68 174.459Z" fill="#2E2E2E"/>
<path d="M168.021 107.193C171.292 107.193 171.292 102.113 168.021 102.113C164.75 102.113 164.75 107.193 168.021 107.193Z" fill="#2E2E2E"/>
<path d="M33.5092 106.222C36.7805 106.222 36.7805 101.143 33.5092 101.143C30.2378 101.143 30.2378 106.222 33.5092 106.222Z" fill="#2E2E2E"/>
<path d="M105.693 73.9972C105.693 71.3657 103.56 69.2324 100.928 69.2324C98.2969 69.2324 96.1636 71.3657 96.1636 73.9972V99.5179C96.1636 102.149 98.2969 104.283 100.928 104.283C103.56 104.283 105.693 102.149 105.693 99.5179V73.9972Z" fill="#E8E8E8"/>
<path d="M105.693 73.9972C105.693 71.3657 103.56 69.2324 100.928 69.2324C98.2969 69.2324 96.1636 71.3657 96.1636 73.9972V99.5179C96.1636 102.149 98.2969 104.283 100.928 104.283C103.56 104.283 105.693 102.149 105.693 99.5179V73.9972Z" fill="#2E2E2E"/>
<path d="M100.838 113.436C105.417 113.436 109.128 109.724 109.128 105.146C109.128 100.567 105.417 96.8555 100.838 96.8555C96.2595 96.8555 92.5479 100.567 92.5479 105.146C92.5479 109.724 96.2595 113.436 100.838 113.436Z" fill="#E8E8E8"/>
<path d="M100.838 112.791C105.417 112.791 109.128 109.08 109.128 104.501C109.128 99.9226 105.417 96.2109 100.838 96.2109C96.2595 96.2109 92.5479 99.9226 92.5479 104.501C92.5479 109.08 96.2595 112.791 100.838 112.791Z" fill="#2E2E2E"/>
<path d="M64.6492 131.233L134.923 84.4988L144.889 77.8748C147.602 76.0766 145.062 71.6674 142.329 73.4859L72.0555 120.22L62.089 126.844C59.3764 128.642 61.9163 133.051 64.6492 131.233Z" fill="#2E2E2E"/>
<g opacity="0.4">
<path opacity="0.1" d="M100.917 179.806C145.968 179.806 182.488 143.904 182.488 99.6167C182.488 55.3296 145.968 19.4277 100.917 19.4277C55.8671 19.4277 19.3467 55.3296 19.3467 99.6167C19.3467 143.904 55.8671 179.806 100.917 179.806Z" fill="#55E0FF"/>
<path d="M116.816 20.4759L34.2696 146.149C29.7774 138.512 26.5168 130.215 24.6079 121.563L91.0104 20.4962C99.5621 19.0976 108.284 19.0976 116.836 20.4962L116.816 20.4759Z" fill="white"/>
<path d="M139.797 29.3806L49.4589 161.017C46.7242 158.587 44.1581 155.973 41.7783 153.194L129.546 25.3066C133.052 26.4295 136.477 27.7907 139.797 29.3806Z" fill="white"/>
<path d="M180.535 80.9346L113.127 179.167C105.796 180.22 98.3591 180.295 91.0093 179.39L172.458 60.707C176.073 67.0434 178.791 73.8509 180.535 80.9346Z" fill="white"/>
</g>
<path d="M184.343 101.663V101.663C184.343 85.179 179.455 69.0651 170.297 55.3592C161.139 41.6533 148.123 30.9708 132.893 24.6626C117.664 18.3545 100.906 16.704 84.7392 19.9198C68.5719 23.1357 53.7213 31.0735 42.0654 42.7295C30.4094 54.3854 22.4716 69.236 19.2558 85.4033C16.0399 101.571 17.6904 118.328 23.9986 133.558C30.3067 148.787 40.9892 161.803 54.6951 170.961C68.4011 180.119 84.5149 185.008 100.999 185.008H100.999C123.096 184.983 144.281 176.195 159.906 160.57C175.53 144.945 184.319 123.76 184.343 101.663ZM100.999 21.8662H101.249V21.8568C122.316 21.9467 142.5 30.3555 157.401 45.2583C172.36 60.2201 180.774 80.5054 180.796 101.663C180.796 117.445 176.116 132.873 167.347 145.996C158.579 159.118 146.117 169.346 131.536 175.386C116.955 181.425 100.91 183.005 85.4313 179.926C69.9523 176.847 55.7339 169.248 44.5741 158.088C33.4143 146.928 25.8144 132.71 22.7355 117.231C19.6565 101.751 21.2367 85.707 27.2763 71.1261C33.316 56.5451 43.5437 44.0826 56.6662 35.3144C69.7887 26.5462 85.2166 21.8662 100.999 21.8662Z" fill="#2E2E2E" stroke="#2E2E2E" stroke-width="0.5"/>
</svg>
