<svg width="173" height="206" viewBox="0 0 173 206" fill="none" xmlns="http://www.w3.org/2000/svg">
<path d="M68.6992 12.8429V3" stroke="#2E2E2E" stroke-width="5" stroke-miterlimit="10" stroke-linecap="round"/>
<path d="M29.0439 13.5859L34.7785 20.6899" stroke="#2E2E2E" stroke-width="5" stroke-miterlimit="10" stroke-linecap="round"/>
<path d="M108.613 13.5859L102.907 20.6899" stroke="#2E2E2E" stroke-width="5" stroke-miterlimit="10" stroke-linecap="round"/>
<path opacity="0.8" d="M154.178 90.8491L96.9182 128.081C95.2464 129.001 93.2877 129.252 91.4379 128.784C89.588 128.315 87.985 127.162 86.9525 125.557C85.9201 123.953 85.5353 122.016 85.8758 120.138C86.2163 118.26 87.2569 116.582 88.7871 115.442L145.847 78.2102C146.677 77.6707 147.605 77.3 148.578 77.1191C149.552 76.9382 150.551 76.9508 151.519 77.1561C152.488 77.3614 153.406 77.7555 154.222 78.3157C155.038 78.876 155.736 79.5915 156.275 80.4213C156.815 81.2512 157.185 82.1792 157.366 83.1524C157.547 84.1256 157.535 85.1248 157.329 86.0931C157.124 87.0615 156.73 87.9798 156.17 88.7959C155.609 89.6119 154.894 90.3096 154.064 90.8491H154.178Z" fill="#64B5FF"/>
<path opacity="0.8" d="M77.6589 140.601L39.3714 165.622C38.5416 166.162 37.6135 166.532 36.6404 166.713C35.6672 166.894 34.6679 166.881 33.6996 166.676C31.744 166.262 30.0333 165.087 28.9437 163.411C27.8541 161.735 27.4749 159.695 27.8896 157.739C28.3042 155.784 29.4787 154.073 31.1548 152.983L69.4422 127.962C71.1182 126.873 73.1585 126.493 75.114 126.908C77.0696 127.323 78.7804 128.497 79.87 130.173C80.9596 131.849 81.3388 133.89 80.9241 135.845C80.5095 137.801 79.3349 139.511 77.6589 140.601Z" fill="#64B5FF"/>
<path d="M127.302 82.1127L70.0423 119.202C69.2124 119.741 68.2844 120.112 67.3112 120.293C66.3381 120.474 65.3388 120.461 64.3705 120.256C63.4022 120.051 62.4838 119.657 61.6678 119.096C60.8517 118.536 60.1541 117.821 59.6145 116.991C59.075 116.161 58.7042 115.233 58.5234 114.26C58.3425 113.287 58.3551 112.287 58.5604 111.319C58.7657 110.351 59.1598 109.432 59.72 108.616C60.2803 107.8 60.9957 107.103 61.8256 106.563L119.057 69.4454C120.736 68.4214 122.748 68.0921 124.666 68.5272C126.584 68.9624 128.257 70.1277 129.33 71.776C130.403 73.4242 130.791 75.4257 130.412 77.3555C130.034 79.2854 128.918 80.9919 127.302 82.1127Z" fill="#148FFF"/>
<path d="M50.7557 131.841L12.4968 156.748C10.8177 157.772 8.80567 158.101 6.88774 157.666C4.96982 157.231 3.29693 156.066 2.22408 154.418C1.15123 152.769 0.762862 150.768 1.14139 148.838C1.51992 146.908 2.63555 145.202 4.25154 144.081L42.539 119.202C43.3689 118.663 44.2969 118.292 45.2701 118.111C46.2433 117.93 47.2425 117.943 48.2108 118.148C49.1791 118.354 50.0975 118.748 50.9135 119.308C51.7296 119.868 52.4273 120.584 52.9668 121.414C53.5063 122.243 53.8771 123.171 54.0579 124.145C54.2388 125.118 54.2262 126.117 54.0209 127.085C53.8156 128.054 53.4215 128.972 52.8613 129.788C52.3011 130.604 51.5856 131.302 50.7557 131.841Z" fill="#148FFF"/>
<path d="M144.561 70.8745L144.219 71.1028C143.389 71.6442 142.46 72.0168 141.487 72.1994C140.513 72.382 139.512 72.371 138.543 72.167C137.573 71.963 136.653 71.57 135.835 71.0105C135.018 70.4509 134.318 69.7358 133.777 68.9059C133.235 68.0761 132.863 67.1477 132.68 66.1738C132.497 65.1999 132.508 64.1996 132.712 63.2299C132.916 62.2603 133.309 61.3404 133.869 60.5226C134.428 59.7048 135.144 59.0053 135.973 58.4639L136.344 58.2357C138.02 57.1461 140.061 56.7669 142.016 57.1815C143.972 57.5962 145.683 58.7707 146.772 60.4468C147.862 62.1228 148.241 64.163 147.826 66.1186C147.412 68.0742 146.237 69.7849 144.561 70.8745Z" fill="#148FFF"/>
<path opacity="0.5" d="M151.267 118.974L94.0067 156.206C92.3386 157.063 90.4107 157.267 88.6001 156.778C86.7895 156.289 85.2265 155.142 84.2169 153.562C83.2072 151.981 82.8235 150.081 83.1408 148.232C83.4582 146.384 84.4537 144.72 85.9326 143.567L142.993 106.335C144.669 105.246 146.709 104.866 148.665 105.281C150.62 105.696 152.331 106.87 153.421 108.546C154.51 110.222 154.89 112.263 154.475 114.218C154.06 116.174 152.886 117.885 151.21 118.974H151.267Z" fill="#3AA1FF"/>
<path opacity="0.5" d="M74.7487 168.734L36.4613 193.612C35.6314 194.152 34.7034 194.522 33.7302 194.703C32.757 194.884 31.7577 194.872 30.7894 194.666C29.8211 194.461 28.9027 194.067 28.0867 193.507C27.2707 192.946 26.573 192.231 26.0335 191.401C25.494 190.571 25.1232 189.643 24.9423 188.67C24.7615 187.697 24.774 186.698 24.9794 185.729C25.394 183.774 26.5686 182.063 28.2446 180.973L66.532 156.095C68.2081 155.005 70.2483 154.626 72.2038 155.041C74.1594 155.456 75.8702 156.63 76.9598 158.306C78.0494 159.982 78.4286 162.022 78.0139 163.978C77.5993 165.934 76.4247 167.644 74.7487 168.734Z" fill="#A4D3FF"/>
<path opacity="0.5" d="M168.67 107.763L168.327 107.991C167.498 108.531 166.57 108.902 165.596 109.083C164.623 109.263 163.624 109.251 162.656 109.046C161.687 108.84 160.769 108.446 159.953 107.886C159.137 107.326 158.439 106.61 157.9 105.78C157.36 104.95 156.989 104.022 156.809 103.049C156.628 102.076 156.64 101.077 156.846 100.108C157.051 99.1402 157.445 98.2218 158.005 97.4058C158.565 96.5898 159.281 95.8921 160.111 95.3525L160.453 95.1243C161.283 94.5848 162.211 94.214 163.184 94.0331C164.157 93.8523 165.157 93.8649 166.125 94.0702C167.093 94.2755 168.012 94.6695 168.828 95.2298C169.644 95.79 170.341 96.5055 170.881 97.3354C171.42 98.1653 171.791 99.0933 171.972 100.066C172.153 101.04 172.14 102.039 171.935 103.007C171.73 103.976 171.336 104.894 170.775 105.71C170.215 106.526 169.5 107.224 168.67 107.763Z" fill="#148FFF"/>
<path d="M19.1436 107.729C22.7384 116.288 28.2732 123.877 32.8951 131.951C37.517 140.025 41.4542 149.069 40.9121 158.284H95.1194C94.6914 148.983 98.4859 140.025 103.108 131.951C107.73 123.877 113.265 116.259 116.888 107.729C131.866 72.2373 108.757 27.2167 68.0443 27.8444C27.2747 27.2167 4.22232 72.2373 19.1436 107.729Z" fill="white"/>
<path d="M68.6455 27.4245V157.864H95.7777C95.3497 148.564 99.1442 139.605 103.766 131.531C108.388 123.457 113.951 115.839 117.546 107.309C132.467 71.8174 109.415 26.7968 68.6455 27.4245Z" fill="#B3B3B3"/>
<path d="M19.5462 108.565C23.1695 117.124 28.7044 124.713 33.3263 132.787C37.4176 139.384 40.0986 146.757 41.2006 154.441C41.3554 155.742 41.986 156.94 42.971 157.804C43.956 158.667 45.2257 159.136 46.5357 159.12H90.3866C91.6966 159.136 92.9663 158.667 93.9512 157.804C94.9362 156.94 95.5668 155.742 95.7217 154.441C96.7975 146.75 99.4804 139.372 103.596 132.787C108.218 124.713 113.753 117.124 117.319 108.565C132.24 73.0732 109.188 28.0527 68.4183 28.6803C27.7058 28.0527 4.62491 73.0732 19.5462 108.565Z" stroke="#2E2E2E" stroke-width="5" stroke-miterlimit="10"/>
<path d="M48.2744 182.113H87.0754V182.969C87.0754 185.517 86.5736 188.04 85.5987 190.393C84.6237 192.747 83.1947 194.886 81.3932 196.687C79.5916 198.489 77.453 199.918 75.0992 200.893C72.7454 201.868 70.2226 202.37 67.6749 202.37C62.5296 202.37 57.595 200.326 53.9567 196.687C50.3184 193.049 48.2744 188.115 48.2744 182.969V182.113Z" fill="#148FFF"/>
<path d="M48.8438 182.744H87.7303V183.6C87.7303 186.148 87.2285 188.671 86.2536 191.024C85.2786 193.378 83.8496 195.517 82.0481 197.318C80.2466 199.12 78.1079 200.549 75.7541 201.524C73.4003 202.499 70.8776 203.001 68.3298 203.001C65.7749 203.012 63.243 202.518 60.8793 201.548C58.5156 200.578 56.3668 199.151 54.5563 197.349C52.7457 195.546 51.309 193.403 50.3287 191.044C49.3484 188.685 48.8437 186.155 48.8438 183.6V182.744Z" stroke="#2E2E2E" stroke-width="5" stroke-miterlimit="10"/>
<path d="M28.8174 182.666H106.876" stroke="#2E2E2E" stroke-width="5" stroke-miterlimit="10" stroke-linecap="round"/>
<path d="M42.6816 171.533H89.357" stroke="#2E2E2E" stroke-width="5" stroke-miterlimit="10" stroke-linecap="round"/>
<path d="M123.767 42.5451L134.323 36.1543" stroke="#2E2E2E" stroke-width="5" stroke-miterlimit="10" stroke-linecap="round"/>
<path d="M13.7534 42.5451L3.19727 36.1543" stroke="#2E2E2E" stroke-width="5" stroke-miterlimit="10" stroke-linecap="round"/>
<path d="M68.6455 157.866V134.643" stroke="#2E2E2E" stroke-width="5" stroke-miterlimit="10" stroke-linecap="round"/>
<path d="M78.7735 120.055L73.7522 127.045L68.7309 134.034L63.7381 127.045L58.7168 120.055" stroke="#2E2E2E" stroke-width="5" stroke-miterlimit="10" stroke-linecap="round"/>
<path d="M101.855 104.6C101.082 106.731 100.127 108.793 99.002 110.762" stroke="white" stroke-width="1.68375" stroke-miterlimit="10" stroke-linecap="round"/>
<path opacity="0.3" d="M105.903 85.5371C105.816 87.9468 105.51 90.3436 104.99 92.6982" stroke="white" stroke-width="1.68375" stroke-miterlimit="10" stroke-linecap="round"/>
<path d="M85.5059 45.1133C90.7085 47.9447 95.2426 51.8603 98.8012 56.5954C102.36 61.3304 104.86 66.7744 106.133 72.5593" stroke="white" stroke-width="1.68375" stroke-miterlimit="10" stroke-linecap="round"/>
<path opacity="0.7" d="M40.5693 48.4818C45.3277 44.8415 50.8324 42.2986 56.6889 41.0354C61.9477 39.8664 67.3837 39.7307 72.6943 40.636" stroke="white" stroke-width="1.68375" stroke-miterlimit="10" stroke-linecap="round"/>
<path d="M31.9834 61.4879C35.0231 55.9736 39.2767 51.2225 44.4225 47.5938" stroke="white" stroke-width="3.36749" stroke-miterlimit="10" stroke-linecap="round"/>
<path d="M41.7392 113.323C35.3311 107.984 30.6772 100.841 28.3825 92.8223C26.0878 84.8036 26.2584 76.2799 28.8721 68.3594" stroke="white" stroke-width="3.36749" stroke-miterlimit="10" stroke-linecap="round"/>
</svg>
