<svg width="230" height="230" viewBox="0 0 230 230" fill="none" xmlns="http://www.w3.org/2000/svg">
<path fill-rule="evenodd" clip-rule="evenodd" d="M0 0H230V230H212.019C212.3 210.584 208.039 181.907 182.045 172.08C154.711 163.152 143.349 152.049 143.349 152.049L142.434 152.921C134.317 160.561 125.339 165.053 117.161 165.053H116.389C108.211 165.053 99.2331 160.561 91.1159 152.921L90.2006 152.049C90.2006 152.049 78.8394 163.151 51.5053 172.08C25.5885 181.761 21.3164 210.531 21.573 230H0V0ZM158.815 93.4543L159.153 93.8215C160.733 95.1906 160.309 101.022 158.63 106.7C157.563 110.689 156.269 112.632 155.428 113.897C155.069 114.435 154.793 114.851 154.65 115.248C149.834 137.862 133.971 157.171 116.905 157.171C99.8379 157.171 83.0903 137.862 78.2739 115.248C78.1319 114.85 77.8552 114.435 77.4964 113.895C76.6547 112.631 75.3612 110.688 74.2945 106.7C72.6157 101.022 72.2363 95.5656 73.7722 93.8215L74.1102 93.4543C76.381 91.3756 76.2035 91.4948 76.2035 91.4948C76.2035 91.4948 72.2436 71.5139 75.4185 62.065C80.6804 46.1418 99.2187 37.7351 102.765 36.3709C108.209 33.9961 112.907 34.9459 112.907 34.9459C113.139 34.9474 116.773 35.6745 116.772 35.6856C122.744 36.8612 152.521 46.9749 157.506 62.065C160.682 71.5139 156.722 91.4948 156.722 91.4948C156.722 91.4948 156.544 91.3756 158.815 93.4543Z" fill="#ADADAD"/>
<rect x="0.5" y="0.5" width="229" height="229" rx="5.5" stroke="#ADADAD"/>
</svg>
