<svg width="15" height="15" viewBox="0 0 15 15" fill="none" xmlns="http://www.w3.org/2000/svg">
<path fill-rule="evenodd" clip-rule="evenodd" d="M11.2348 6.40967C11.2348 7.68448 10.7276 8.90707 9.8248 9.80849C8.92198 10.7099 7.69749 11.2163 6.4207 11.2163C5.14391 11.2163 3.91942 10.7099 3.0166 9.80849C2.11377 8.90707 1.60657 7.68448 1.60657 6.40967C1.60657 5.13487 2.11377 3.91227 3.0166 3.01085C3.91942 2.10943 5.14391 1.60301 6.4207 1.60301C7.69749 1.60301 8.92198 2.10943 9.8248 3.01085C10.7276 3.91227 11.2348 5.13487 11.2348 6.40967ZM10.3574 11.4738C9.06732 12.4738 7.44405 12.9453 5.81805 12.7923C4.19205 12.6394 2.68555 11.8735 1.60524 10.6505C0.524924 9.42755 -0.0479809 7.83949 0.00315018 6.20962C0.0542813 4.57975 0.725605 3.0306 1.88045 1.87754C3.0353 0.724479 4.58686 0.0541971 6.21926 0.00314529C7.85167 -0.0479065 9.4422 0.52411 10.6671 1.60274C11.8919 2.68138 12.659 4.18554 12.8122 5.80903C12.9654 7.43251 12.4932 9.05326 11.4916 10.3413L14.7446 13.5892C14.8234 13.6626 14.8867 13.751 14.9305 13.8493C14.9744 13.9476 14.998 14.0537 14.9999 14.1613C15.0018 14.2689 14.982 14.3758 14.9416 14.4755C14.9012 14.5753 14.8411 14.6659 14.7649 14.742C14.6887 14.8181 14.598 14.8781 14.498 14.9184C14.3981 14.9587 14.2911 14.9785 14.1833 14.9766C14.0756 14.9747 13.9693 14.9512 13.8708 14.9074C13.7724 14.8636 13.6838 14.8004 13.6103 14.7217L10.3574 11.4738Z" fill="#64B5FF"/>
</svg>
