<svg width="15" height="16" viewBox="0 0 15 16" fill="none" xmlns="http://www.w3.org/2000/svg">
<path fill-rule="evenodd" clip-rule="evenodd" d="M11.2348 6.89795C11.2348 8.17276 10.7276 9.39535 9.8248 10.2968C8.92198 11.1982 7.69749 11.7046 6.4207 11.7046C5.14391 11.7046 3.91942 11.1982 3.0166 10.2968C2.11377 9.39535 1.60657 8.17276 1.60657 6.89795C1.60657 5.62315 2.11377 4.40055 3.0166 3.49913C3.91942 2.59771 5.14391 2.09129 6.4207 2.09129C7.69749 2.09129 8.92198 2.59771 9.8248 3.49913C10.7276 4.40055 11.2348 5.62315 11.2348 6.89795ZM10.3574 11.9621C9.06732 12.9621 7.44405 13.4336 5.81805 13.2806C4.19205 13.1277 2.68555 12.3618 1.60524 11.1388C0.524924 9.91583 -0.0479809 8.32777 0.00315018 6.6979C0.0542813 5.06803 0.725605 3.51888 1.88045 2.36582C3.0353 1.21276 4.58686 0.542478 6.21926 0.491427C7.85167 0.440375 9.4422 1.01239 10.6671 2.09103C11.8919 3.16966 12.659 4.67383 12.8122 6.29731C12.9654 7.92079 12.4932 9.54154 11.4916 10.8296L14.7446 14.0775C14.8234 14.1508 14.8867 14.2393 14.9305 14.3376C14.9744 14.4359 14.998 14.542 14.9999 14.6496C15.0018 14.7572 14.982 14.864 14.9416 14.9638C14.9012 15.0636 14.8411 15.1542 14.7649 15.2303C14.6887 15.3064 14.598 15.3664 14.498 15.4067C14.3981 15.447 14.2911 15.4668 14.1833 15.4649C14.0756 15.463 13.9693 15.4394 13.8708 15.3956C13.7724 15.3518 13.6838 15.2887 13.6103 15.21L10.3574 11.9621Z" fill="#C4C4C4"/>
</svg>
