<svg width="40" height="55" viewBox="0 0 40 55" fill="none" xmlns="http://www.w3.org/2000/svg">
<path d="M36.364 23.6364H32.7276V16.3636C32.7276 9.27273 27.0913 3.63636 20.0004 3.63636C12.9094 3.63636 7.27308 9.27273 7.27308 16.3636V23.6364H3.63672V16.3636C3.63672 7.27273 10.9094 0 20.0004 0C29.0913 0 36.364 7.27273 36.364 16.3636V23.6364Z" fill="#9B9B9B"/>
<path d="M34.5455 54.5476H5.45455C2.36364 54.5476 0 52.1839 0 49.093V27.2749C0 24.1839 2.36364 21.8203 5.45455 21.8203H34.5455C37.6364 21.8203 40 24.1839 40 27.2749V49.093C40 52.1839 37.6364 54.5476 34.5455 54.5476ZM5.45455 25.4567C4.36364 25.4567 3.63636 26.1839 3.63636 27.2749V49.093C3.63636 50.1839 4.36364 50.9112 5.45455 50.9112H34.5455C35.6364 50.9112 36.3636 50.1839 36.3636 49.093V27.2749C36.3636 26.1839 35.6364 25.4567 34.5455 25.4567H5.45455Z" fill="#9B9B9B"/>
<path d="M19.9996 36.3665C22.008 36.3665 23.636 34.7384 23.636 32.7301C23.636 30.7218 22.008 29.0938 19.9996 29.0938C17.9913 29.0938 16.3633 30.7218 16.3633 32.7301C16.3633 34.7384 17.9913 36.3665 19.9996 36.3665Z" fill="#9B9B9B"/>
<path d="M20.9088 32.7266H19.0906L17.2725 43.6357H22.727L20.9088 32.7266Z" fill="#9B9B9B"/>
</svg>
