<svg width="35" height="35" viewBox="0 0 35 35" fill="none" xmlns="http://www.w3.org/2000/svg">
<path d="M30.0236 16.5266L5.96113 4.4954C5.77254 4.40108 5.5607 4.36329 5.35112 4.38657C5.14155 4.40986 4.94317 4.49323 4.77988 4.62665C4.62394 4.75734 4.50754 4.92894 4.44378 5.12216C4.38002 5.31538 4.37142 5.52256 4.41894 5.7204L7.31738 16.4063H19.6877V18.5938H7.31738L4.37519 29.247C4.3306 29.4122 4.32539 29.5856 4.36 29.7531C4.3946 29.9207 4.46805 30.0779 4.57443 30.2119C4.68081 30.346 4.81717 30.4532 4.97253 30.5249C5.12789 30.5967 5.29792 30.631 5.46894 30.6251C5.64016 30.6241 5.80875 30.5828 5.96113 30.5048L30.0236 18.4735C30.2028 18.3817 30.3531 18.2423 30.4581 18.0705C30.5631 17.8988 30.6187 17.7014 30.6187 17.5001C30.6187 17.2988 30.5631 17.1014 30.4581 16.9296C30.3531 16.7579 30.2028 16.6184 30.0236 16.5266Z" fill="#C4C4C4"/>
</svg>
