<svg width="197" height="176" viewBox="0 0 197 176" fill="none" xmlns="http://www.w3.org/2000/svg">
<path d="M87.0788 153.236H110.952V173.147C110.952 173.185 110.944 173.223 110.93 173.258C110.915 173.294 110.894 173.326 110.867 173.353C110.84 173.38 110.808 173.401 110.772 173.416C110.737 173.43 110.699 173.438 110.661 173.438H87.3693C87.2922 173.438 87.2184 173.407 87.1639 173.353C87.1094 173.298 87.0788 173.224 87.0788 173.147V153.236Z" fill="#64B5FF"/>
<path d="M87.0788 157.798H110.968V162.192H87.0788V157.798Z" fill="#148FFF"/>
<path d="M110.972 175.061C110.49 175.061 110.028 174.87 109.688 174.53C109.347 174.189 109.156 173.727 109.156 173.246V155.122H88.8943V173.246C88.8943 173.727 88.703 174.189 88.3625 174.53C88.022 174.87 87.5602 175.061 87.0787 175.061C86.5972 175.061 86.1354 174.87 85.7949 174.53C85.4544 174.189 85.2631 173.727 85.2631 173.246V151.491H112.787V173.246C112.786 173.727 112.595 174.188 112.254 174.528C111.914 174.869 111.453 175.06 110.972 175.061Z" fill="#25252D"/>
<path d="M80.3657 171.689H117.815V175.321H80.3657V171.689Z" fill="#25252D"/>
<path d="M70.9039 171.689H75.342V175.321H70.9039V171.689Z" fill="#25252D"/>
<path d="M122.846 171.689H127.966V175.321H122.846V171.689Z" fill="#25252D"/>
<path d="M182.873 18.5586H15.1779C8.56668 18.5586 3.20721 23.9181 3.20721 30.5293V144.035C3.20721 150.646 8.56668 156.006 15.1779 156.006H182.873C189.484 156.006 194.843 150.646 194.843 144.035V30.5293C194.843 23.9181 189.484 18.5586 182.873 18.5586Z" fill="#64B5FF"/>
<path d="M184.721 155.013C184.414 155.042 184.103 155.054 183.793 155.054H16.1019C14.5295 155.054 12.9725 154.745 11.5197 154.144C10.0668 153.542 8.74673 152.661 7.63472 151.549C6.52271 150.437 5.64059 149.118 5.03876 147.665C4.43692 146.212 4.12716 144.655 4.12716 143.083L2.82397 27.6526C2.82397 20.7897 9.82 18.9338 9.86035 18.5586C20.4674 22.8797 18.1555 33.9224 24.0057 41.4389C31.6715 51.243 25.1314 71.7187 22.9688 82.358C19.6806 98.5489 14.2419 115.765 15.1175 132.448C16.1382 151.701 41.2456 155.397 56.4844 156.494C76.609 157.938 96.879 157.099 116.895 155.227C138.811 153.182 163.531 157.224 184.721 155.013Z" fill="#148FFF"/>
<path d="M16.6632 30.2754H181.389V130.168H16.6632V30.2754Z" fill="#373635"/>
<path opacity="0.5" d="M181.389 30.2754H16.6632V37.336H35.7187V130.168H42.7793V37.336H181.389V30.2754Z" fill="#21201F"/>
<path d="M185.003 157.822H13.0475C9.95716 157.818 6.99428 156.589 4.80904 154.404C2.62381 152.219 1.39474 149.256 1.39154 146.166V28.3992C1.39474 25.3088 2.62381 22.3459 4.80904 20.1607C6.99428 17.9754 9.95716 16.7464 13.0475 16.7432H185.003C188.093 16.7464 191.056 17.9754 193.241 20.1607C195.427 22.3459 196.656 25.3088 196.659 28.3992V146.166C196.656 149.256 195.427 152.219 193.241 154.404C191.056 156.589 188.093 157.818 185.003 157.822ZM13.0475 20.3743C10.9199 20.3765 8.87997 21.2226 7.37548 22.7271C5.87099 24.2316 5.02483 26.2715 5.0227 28.3992V146.166C5.0259 148.293 5.8724 150.332 7.37666 151.836C8.88091 153.341 10.9202 154.187 13.0475 154.19H185.003C187.13 154.187 189.17 153.341 190.674 151.836C192.178 150.332 193.025 148.293 193.028 146.166V28.3992C193.026 26.2715 192.179 24.2316 190.675 22.7271C189.17 21.2226 187.131 20.3765 185.003 20.3743H13.0475Z" fill="#25252D"/>
<path d="M99.0254 69.6353C98.7579 69.6353 98.5013 69.5291 98.3121 69.3399C98.123 69.1508 98.0167 68.8942 98.0167 68.6267V44.2294C98.0167 43.9618 98.123 43.7053 98.3121 43.5161C98.5013 43.327 98.7579 43.2207 99.0254 43.2207C99.2929 43.2207 99.5494 43.327 99.7386 43.5161C99.9278 43.7053 100.034 43.9618 100.034 44.2294V68.6267C100.034 68.8942 99.9278 69.1508 99.7386 69.3399C99.5494 69.5291 99.2929 69.6353 99.0254 69.6353Z" fill="white"/>
<path d="M99.0254 81.4743C98.8928 81.4748 98.7614 81.4491 98.6388 81.3986C98.5161 81.3481 98.4047 81.2738 98.311 81.18C98.2172 81.0863 98.1429 80.9749 98.0924 80.8522C98.0419 80.7296 98.0162 80.5982 98.0167 80.4656V75.3417C98.0167 75.0742 98.123 74.8176 98.3122 74.6284C98.5013 74.4393 98.7579 74.333 99.0254 74.333C99.2929 74.333 99.5495 74.4393 99.7386 74.6284C99.9278 74.8176 100.034 75.0742 100.034 75.3417V80.4656C100.035 80.5982 100.009 80.7296 99.9583 80.8522C99.9078 80.9749 99.8336 81.0863 99.7398 81.18C99.646 81.2738 99.5346 81.3481 99.412 81.3986C99.2894 81.4491 99.158 81.4748 99.0254 81.4743Z" fill="white"/>
<path d="M99.0254 88.9819C98.7579 88.9819 98.5013 88.8757 98.3121 88.6865C98.123 88.4973 98.0167 88.2408 98.0167 87.9733V86.4764C98.0167 86.2089 98.123 85.9524 98.3121 85.7632C98.5013 85.574 98.7579 85.4678 99.0254 85.4678C99.2929 85.4678 99.5494 85.574 99.7386 85.7632C99.9278 85.9524 100.034 86.2089 100.034 86.4764V87.9733C100.034 88.2408 99.9278 88.4973 99.7386 88.6865C99.5494 88.8757 99.2929 88.9819 99.0254 88.9819Z" fill="white"/>
<path d="M186.791 55.3301H189.615V79.7274H186.791V55.3301Z" fill="white"/>
<path d="M186.722 83.3799H189.547V90.6906H186.722V83.3799Z" fill="white"/>
<path d="M99.061 64.4703C98.7935 64.4703 98.537 64.364 98.3478 64.1749C98.1586 63.9857 98.0524 63.7292 98.0524 63.4616V39.0643C98.0524 38.7968 98.1586 38.5403 98.3478 38.3511C98.537 38.1619 98.7935 38.0557 99.061 38.0557C99.3285 38.0557 99.5851 38.1619 99.7742 38.3511C99.9634 38.5403 100.07 38.7968 100.07 39.0643V63.4616C100.07 63.7292 99.9634 63.9857 99.7742 64.1749C99.5851 64.364 99.3285 64.4703 99.061 64.4703Z" fill="white"/>
<path d="M98.9897 72.6225C98.7222 72.6225 98.4656 72.5162 98.2764 72.3271C98.0873 72.1379 97.981 71.8814 97.981 71.6139V68.3378C97.981 68.0702 98.0873 67.8137 98.2764 67.6245C98.4656 67.4354 98.7222 67.3291 98.9897 67.3291C99.2572 67.3291 99.5137 67.4354 99.7029 67.6245C99.8921 67.8137 99.9983 68.0702 99.9983 68.3378V71.6139C99.9983 71.8814 99.8921 72.1379 99.7029 72.3271C99.5137 72.5162 99.2572 72.6225 98.9897 72.6225Z" fill="white"/>
<path d="M147.421 129.62H50.9089C48.9536 129.62 47.0782 128.844 45.6952 127.461C44.3122 126.079 43.5347 124.204 43.5336 122.249L43.2593 9.88896C43.2587 8.92061 43.449 7.96165 43.8192 7.06686C44.1894 6.17208 44.7323 5.359 45.4168 4.67409C46.1014 3.98918 46.9142 3.44586 47.8087 3.07516C48.7033 2.70447 49.6622 2.51368 50.6305 2.51368H147.143C149.097 2.51153 150.971 3.28485 152.356 4.66386C153.74 6.04286 154.521 7.91483 154.526 9.86878L154.792 122.249C154.792 124.204 154.016 126.079 152.633 127.461C151.251 128.844 149.376 129.62 147.421 129.62Z" fill="white"/>
<path d="M155.22 128.571H43.9611L43.6504 123.54H154.905L155.22 128.571Z" fill="#E0F0FF"/>
<path d="M154.332 131.435C153.851 131.435 153.39 131.244 153.049 130.905C152.709 130.565 152.517 130.104 152.516 129.623L152.218 8.20569C152.214 7.17696 151.804 6.1914 151.076 5.46473C150.348 4.73806 149.361 4.32948 148.332 4.32842H48.4796C47.9684 4.32842 47.4622 4.42931 46.99 4.62533C46.5178 4.82134 46.0889 5.10861 45.728 5.47068C45.3671 5.83275 45.0811 6.2625 44.8866 6.73529C44.692 7.20808 44.5927 7.71461 44.5943 8.22586L44.8929 129.615C44.8929 130.097 44.7023 130.558 44.3628 130.899C44.0233 131.24 43.5625 131.433 43.0813 131.435C42.6005 131.435 42.1393 131.244 41.7989 130.905C41.4586 130.565 41.2668 130.104 41.2657 129.623L40.9672 8.23393C40.9651 7.24564 41.1578 6.26663 41.5342 5.35286C41.9107 4.43909 42.4636 3.60848 43.1613 2.90853C43.859 2.20858 44.6878 1.65301 45.6004 1.27359C46.513 0.894164 47.4913 0.698324 48.4796 0.697266H148.332C150.322 0.700451 152.23 1.49117 153.638 2.89661C155.047 4.30205 155.841 6.2079 155.849 8.19762L156.139 129.615C156.14 129.854 156.094 130.09 156.004 130.31C155.914 130.531 155.781 130.731 155.613 130.9C155.445 131.069 155.246 131.203 155.026 131.295C154.806 131.387 154.57 131.434 154.332 131.435Z" fill="#25252D"/>
<path d="M183.204 131.979H14.8475V28.459H42.4321C42.9137 28.459 43.3755 28.6503 43.716 28.9908C44.0564 29.3312 44.2477 29.793 44.2477 30.2746C44.2477 30.7561 44.0564 31.2179 43.716 31.5584C43.3755 31.8989 42.9137 32.0901 42.4321 32.0901H18.4786V128.348H179.573V32.0901H154.558C154.077 32.0901 153.615 31.8989 153.274 31.5584C152.934 31.2179 152.743 30.7561 152.743 30.2746C152.743 29.793 152.934 29.3312 153.274 28.9908C153.615 28.6503 154.077 28.459 154.558 28.459H183.204V131.979Z" fill="#25252D"/>
<path d="M99.4328 145.39C101.472 145.39 103.124 143.737 103.124 141.699C103.124 139.66 101.472 138.007 99.4328 138.007C97.3939 138.007 95.7411 139.66 95.7411 141.699C95.7411 143.737 97.3939 145.39 99.4328 145.39Z" fill="white"/>
<path d="M99.434 146.601C98.4645 146.601 97.5167 146.313 96.7106 145.775C95.9045 145.236 95.2762 144.471 94.9051 143.575C94.5341 142.679 94.437 141.694 94.6262 140.743C94.8153 139.792 95.2822 138.918 95.9678 138.233C96.6533 137.547 97.5268 137.08 98.4777 136.891C99.4286 136.702 100.414 136.799 101.31 137.17C102.206 137.541 102.971 138.169 103.51 138.975C104.049 139.782 104.336 140.729 104.336 141.699C104.335 142.999 103.818 144.245 102.899 145.164C101.98 146.083 100.734 146.6 99.434 146.601ZM99.434 139.218C98.8666 139.218 98.3163 139.412 97.8748 139.769C97.4334 140.125 97.1274 140.622 97.008 141.177C96.8887 141.732 96.963 142.311 97.2188 142.817C97.4745 143.324 97.8961 143.727 98.4133 143.961C98.9306 144.194 99.5122 144.243 100.061 144.1C100.61 143.956 101.093 143.629 101.43 143.172C101.767 142.716 101.938 142.157 101.913 141.59C101.888 141.024 101.67 140.482 101.294 140.057C101.061 139.793 100.775 139.582 100.454 139.438C100.133 139.293 99.7858 139.218 99.434 139.218Z" fill="#25252D"/>
<path d="M128.865 33.709H131.69V43.7471H128.865V33.709Z" fill="white"/>
<path d="M128.83 46.958H131.654V51.4001H128.83V46.958Z" fill="white"/>
<path d="M97.1617 32.7314H99.9859V42.7696H97.1617V32.7314Z" fill="white"/>
<path d="M97.126 45.9756H99.9503V50.4177H97.126V45.9756Z" fill="white"/>
<path opacity="0.5" d="M159.484 136.632H181.864V139.456H159.484V136.632Z" fill="white"/>
<path opacity="0.5" d="M150.539 136.562H155.025V139.387H150.539V136.562Z" fill="white"/>
<path d="M0 63.5508H5.02713V68.5779H0V63.5508Z" fill="white"/>
<path d="M0 73.5938H5.02713V78.6209H0V73.5938Z" fill="white"/>
<path d="M0 83.6533H5.02713V88.6805H0V83.6533Z" fill="white"/>
<path d="M0 93.707H5.02713V98.7342H0V93.707Z" fill="white"/>
<path opacity="0.5" d="M155.22 37.3369H162.119V129.621H155.22V37.3369Z" fill="#21201F"/>
<path d="M73.1636 0H78.1908V5.02713H73.1636V0Z" fill="white"/>
<path d="M83.2214 0H88.2486V5.02713H83.2214V0Z" fill="white"/>
<path d="M93.2766 0H98.3037V5.02713H93.2766V0Z" fill="white"/>
<path d="M103.334 0H108.361V5.02713H103.334V0Z" fill="white"/>
<path d="M37.421 139.884H73.1636V143.515H37.421V139.884Z" fill="#25252D"/>
<path d="M124.376 68.7897C124.376 67.7689 124.715 66.7482 124.715 65.3885C124.715 64.0288 124.715 63.0081 124.376 61.9914L131.529 56.2098C131.811 55.965 131.999 55.6302 132.061 55.2624C132.124 54.8946 132.057 54.5165 131.872 54.1925L125.074 42.2742C124.803 42.0262 124.466 41.8619 124.104 41.8011C123.742 41.7403 123.37 41.7854 123.032 41.9313L114.531 45.3324C112.833 43.9728 110.795 42.952 108.754 41.9313L107.378 33.0833C107.717 32.0666 106.696 31.3848 106.018 31.3848H92.4177C91.7399 31.3848 90.7192 32.0666 90.7192 32.7444L89.3595 41.9232C87.3422 42.605 85.6194 43.9647 83.5819 45.3244L75.4199 41.9232C74.4032 41.5843 73.7213 41.9232 73.0435 42.605L66.2412 54.5031C65.9022 54.842 66.2412 55.8628 66.923 56.5204L74.0602 61.9631C74.0602 62.9798 73.7213 63.9804 73.7213 65.3603C73.7213 66.7401 73.7213 67.7407 74.0602 68.7614L66.923 74.539C66.6362 74.7856 66.4452 75.1252 66.3833 75.4983C66.3213 75.8714 66.3924 76.2545 66.5841 76.5805L73.3824 88.4786C73.6532 88.7256 73.9896 88.8889 74.3511 88.9491C74.7126 89.0092 75.0838 88.9635 75.4199 88.8175L83.9208 85.4486C85.6194 86.8083 87.6609 87.8291 89.6984 88.8458L91.0581 97.6856C91.0581 98.3675 91.7399 99.0453 92.7607 99.0453H106.357C107.039 99.0453 108.056 98.3675 108.056 97.6856L109.42 88.8458C111.457 87.8291 113.499 86.8083 115.197 85.4486L123.694 88.8458C124.059 88.9991 124.467 89.0148 124.842 88.8902C125.218 88.7655 125.535 88.5089 125.736 88.1679L132.534 76.2537C132.877 75.5719 132.877 74.5511 132.195 74.2122L124.376 68.7897ZM99.2201 77.2866C96.8669 77.2866 94.5665 76.5888 92.6099 75.2814C90.6533 73.974 89.1283 72.1158 88.2277 69.9417C87.3272 67.7676 87.0916 65.3753 87.5506 63.0673C88.0097 60.7593 89.1429 58.6393 90.8069 56.9753C92.4709 55.3113 94.5909 54.1781 96.8989 53.719C99.2069 53.26 101.599 53.4956 103.773 54.3961C105.947 55.2967 107.806 56.8217 109.113 58.7783C110.42 60.7349 111.118 63.0353 111.118 65.3885C111.081 68.5324 109.815 71.5368 107.592 73.7601C105.368 75.9833 102.364 77.2489 99.2201 77.2866Z" fill="#B3DBFF"/>
<path d="M132.533 76.7184L125.731 88.6165C125.533 88.9597 125.217 89.2184 124.841 89.3434C124.465 89.4684 124.057 89.4509 123.693 89.2943L115.192 85.9012C113.502 87.2608 111.452 88.2816 109.415 89.2943L108.059 98.1462C108.059 98.8241 107.034 99.5019 106.357 99.5019H92.7559C91.7432 99.5019 91.0613 98.8241 91.0613 98.1462L90.097 91.9047C95.3441 90.7673 100.313 88.5988 104.715 85.5251C109.117 82.4514 112.864 78.5337 115.74 73.9997C118.615 69.4656 120.561 64.4055 121.464 59.1131C122.368 53.8208 122.211 48.4017 121.002 43.1706L123.02 42.3636C124.044 42.0207 124.722 42.3636 125.057 42.7106L131.851 54.6289C132.043 54.9501 132.115 55.3288 132.054 55.698C131.994 56.0671 131.805 56.403 131.52 56.6462L124.375 62.4237C124.718 63.4485 124.718 64.4733 124.718 65.829C124.718 67.1846 124.375 68.2134 124.375 69.2261L132.198 74.6688C132.876 75.0158 132.876 76.0406 132.533 76.7184Z" fill="#85C4FF"/>
<path d="M106.356 100.866H92.7597C90.8836 100.866 89.3465 99.5347 89.2496 97.8644L88.0392 90.0534C86.5109 89.3181 85.0396 88.4698 83.6375 87.5156L75.9717 90.5738C75.3149 90.8259 74.6001 90.8865 73.9103 90.7486C73.2204 90.6108 72.5838 90.2802 72.0743 89.7952L71.9008 89.6257L69.9843 86.2729L73.1394 84.4695L74.6806 87.1686L74.7815 87.1444L84.2023 83.3721L85.0294 84.0337C86.5787 85.2724 88.475 86.2205 90.4802 87.2251L91.3234 87.6286L91.4687 88.5606L92.8001 97.2189H106.243H106.268L107.74 87.6447L108.579 87.2412C110.597 86.2326 112.489 85.2845 114.038 84.0458L114.865 83.3842L124.266 87.1121L130.891 75.5207L122.075 69.3719L122.931 67.7056C123.316 66.9588 123.508 66.1273 123.489 65.2871C123.47 64.447 123.24 63.625 122.822 62.8964L122.051 61.5528L130.221 54.9401L123.766 43.619L123.661 43.6432L114.24 47.4115L113.373 46.7498C111.823 45.5112 109.927 44.5631 107.918 43.5585L107.079 43.155L105.549 33.2258H92.5096H92.4854L90.9926 43.3123L89.9315 43.6634C88.5557 44.1233 87.2888 44.9948 85.8242 46.0075C85.4208 46.2859 85.0173 46.5683 84.5856 46.8507L83.7787 47.3913L74.7976 43.6472C74.7552 43.6308 74.71 43.6226 74.6645 43.623C74.6001 43.6618 74.5393 43.7064 74.4829 43.7562L68.0275 55.0531C68.0626 55.1061 68.1003 55.1573 68.1405 55.2064L76.2541 61.3874L75.7296 62.6745C75.7296 62.6987 74.5838 65.6238 75.6973 68.0284L76.2904 69.3114L68.2212 75.8435L70.0691 79.0712L66.918 80.8746L64.9572 77.421C64.5941 76.7542 64.464 75.9852 64.5876 75.2361C64.7111 74.487 65.0811 73.8005 65.6391 73.2855L65.7803 73.1604L71.9209 68.1858C71.4789 66.371 71.4913 64.4752 71.9573 62.6664L65.6391 57.8249C65.1158 57.3009 64.7185 56.6649 64.4771 55.9649C64.3138 55.5595 64.2523 55.1202 64.298 54.6856C64.3437 54.2509 64.4952 53.8341 64.7393 53.4715L71.5982 41.4887L71.7676 41.3152C72.2827 40.7277 72.9615 40.3075 73.717 40.1083C74.4725 39.9092 75.2703 39.9403 76.008 40.1976L76.1331 40.246L83.3954 43.268L83.7989 42.9976C85.0393 42.0808 86.3631 41.2825 87.7528 40.6132L88.9632 32.5682C89.0802 30.8656 90.8998 29.5664 92.4692 29.5664H106.07C106.593 29.5771 107.107 29.7083 107.572 29.9497C108.036 30.1911 108.439 30.5362 108.749 30.9584C109.208 31.5886 109.398 32.375 109.277 33.1451L110.387 40.7504C111.914 41.4872 113.386 42.3354 114.789 43.2881L122.455 40.2299C123.111 39.9779 123.826 39.9173 124.516 40.0551C125.206 40.1929 125.842 40.5235 126.352 41.0086L126.521 41.1821L133.489 53.3787C133.853 54.0451 133.983 54.8138 133.861 55.5629C133.738 56.312 133.369 56.9987 132.811 57.5142L132.67 57.6433L126.606 62.5373C127.256 64.3615 127.271 66.3515 126.651 68.1858L133.142 72.6844C134.683 73.5679 134.877 75.6256 134.151 77.0821L134.102 77.1708L127.32 89.0367C126.91 89.7891 126.225 90.3542 125.408 90.6142C124.608 90.8897 123.733 90.8536 122.959 90.5133L115.471 87.5116C114.068 88.4649 112.597 89.3132 111.069 90.0493L109.858 97.8684C109.741 99.567 107.926 100.866 106.356 100.866ZM99.2192 79.1075C91.7834 79.1075 85.5015 72.8296 85.5015 65.3898C85.5015 57.9499 91.7793 51.6721 99.2192 51.6721C106.659 51.6721 112.937 57.954 112.937 65.3898C112.937 72.8256 106.651 79.1034 99.2192 79.1034V79.1075ZM99.2192 55.3032C97.2242 55.3032 95.2741 55.8948 93.6154 57.0031C91.9567 58.1114 90.6638 59.6867 89.9004 61.5298C89.137 63.3729 88.9372 65.401 89.3264 67.3576C89.7156 69.3142 90.6763 71.1114 92.0869 72.522C93.4975 73.9327 95.2948 74.8933 97.2514 75.2825C99.208 75.6717 101.236 75.4719 103.079 74.7085C104.922 73.9451 106.497 72.6523 107.606 70.9936C108.714 69.3348 109.306 67.3847 109.306 65.3898C109.27 62.7261 108.196 60.1815 106.312 58.2982C104.428 56.4149 101.883 55.3417 99.2192 55.3073V55.3032Z" fill="#25252D"/>
<path opacity="0.5" d="M81.7773 63.6146L78.9531 63.4976C78.9531 63.3766 79.5704 51.1476 90.7826 47.8271L91.5895 50.5344C82.3381 53.2577 81.7975 63.191 81.7773 63.6146Z" fill="white"/>
</svg>
