<svg width="80" height="82" viewBox="0 0 80 82" fill="none" xmlns="http://www.w3.org/2000/svg">
<path d="M79.5487 41.177C79.5568 46.5085 78.5063 51.7873 76.4593 56.7003C76.3983 56.8457 76.3373 56.9912 76.272 57.1411C73.9923 62.4462 70.5994 67.1865 66.3286 71.0336L66.0061 71.3245C61.1908 75.5813 55.427 78.5939 49.2086 80.1043C42.9902 81.6147 36.5026 81.5779 30.3014 79.9969C24.1001 78.416 18.3702 75.3381 13.6024 71.0268C8.83457 66.7155 5.17099 61.2995 2.92546 55.2425C0.67993 49.1856 -0.0806128 42.6683 0.708983 36.249C1.49858 29.8297 3.81478 23.6996 7.45917 18.3839C11.1036 13.0683 15.9675 8.72541 21.6344 5.72741C27.3013 2.7294 33.6021 1.16559 39.9973 1.16993C42.4026 1.17074 44.8031 1.39054 47.1694 1.82665C56.262 3.52434 64.4795 8.39001 70.3946 15.5785C76.3096 22.7671 79.5485 31.8243 79.5487 41.177Z" fill="#7CC0FF"/>
<path d="M39.997 81.6183C30.2726 81.6197 20.881 78.0369 13.5793 71.5405C6.27754 65.0441 1.56606 56.0791 0.32639 46.323C-0.913284 36.5669 1.40379 26.6881 6.84407 18.5351C12.2843 10.3821 20.475 4.51347 29.8836 2.0273C35.5575 0.544609 41.4821 0.32655 47.2476 1.38821C53.1285 2.48589 58.6914 4.903 63.5272 8.46178C68.3629 12.0206 72.3486 16.6305 75.1911 21.9526C78.0336 27.2747 79.6605 33.1736 79.9523 39.2155C80.2441 45.2574 79.1934 51.2887 76.8773 56.8657C76.8163 57.0155 76.751 57.1654 76.6856 57.3064C74.375 62.662 70.9475 67.4491 66.6376 71.34L66.4198 71.5383L66.3108 71.6353C59.0234 78.0753 49.6738 81.6224 39.997 81.6183ZM39.997 1.60418C34.859 1.59954 29.7704 2.61979 25.0226 4.60654C20.2748 6.59329 15.9609 9.50755 12.3278 13.1825C8.69467 16.8575 5.81361 21.2211 3.84949 26.0236C1.88537 30.8261 0.876743 35.9733 0.881328 41.1705C0.867651 46.6814 2.0035 52.1332 4.21467 57.1698C6.69465 62.8395 10.457 67.8404 15.1983 71.7693C19.9396 75.6983 25.5273 78.4453 31.5108 79.789C37.4943 81.1327 43.7063 81.0355 49.6458 79.5051C55.5854 77.9747 61.0863 75.0541 65.7052 70.9786L65.8141 70.8816L66.0233 70.6921C70.2418 66.883 73.5965 62.1966 75.8577 56.9538C75.9274 56.804 75.9841 56.6629 76.0451 56.5131C78.3084 51.06 79.3353 45.1633 79.0505 39.2562C78.7657 33.349 77.1763 27.5814 74.3992 22.377C71.622 17.1725 67.7276 12.6634 63.002 9.18089C58.2763 5.69834 52.8394 3.33078 47.0907 2.25209C44.75 1.82255 42.3759 1.60572 39.997 1.60418Z" fill="black"/>
<path d="M18.7947 36.2603C18.4156 37.5208 16.6988 39.3147 14.8731 42.162C13.0474 45.0092 13.9798 50.1881 13.9798 50.1881L11.6748 52.4888L21.4308 62.3528C23.1738 60.6692 26.8121 58.0335 29.3568 56.4027C32.237 54.5559 40.7512 45.6307 41.81 44.4627C42.9996 43.1404 42.2458 41.1086 40.6074 41.2144C39.3525 41.2981 37.7185 42.7129 37.0083 43.3829C38.0017 42.4 40.7556 39.6144 41.4832 38.2745C42.3765 36.6305 41.4004 35.727 40.0235 35.0703C39.5878 34.8719 39.0388 35.0703 38.4418 35.4625C38.8275 35.0841 39.1749 34.6678 39.4789 34.2196C40.1281 33.1265 39.749 31.5354 38.0714 31.0462C37.2 30.7817 36.2414 31.412 35.5442 32.0599C37.0693 30.1911 36.9298 29.3405 35.7446 28.1416C34.3372 26.718 34.0017 27.3747 30.8688 30.5526L23.2348 38.2745C23.2348 38.2745 24.4287 33.6731 24.189 32.2274C23.9494 30.7817 22.7511 30.3322 21.0692 31.3724C19.3873 32.4125 19.1737 34.9997 18.7947 36.2603Z" fill="#E28362"/>
<path d="M21.4426 62.793C21.3853 62.7933 21.3285 62.7822 21.2754 62.7603C21.2223 62.7383 21.174 62.706 21.1333 62.6652L11.3816 52.7967C11.3004 52.7141 11.2549 52.6024 11.2549 52.486C11.2549 52.3696 11.3004 52.2578 11.3816 52.1753L13.4949 50.0332C13.3293 48.9666 12.7803 44.5679 14.4927 41.919C15.239 40.763 15.956 39.7927 16.5907 38.9339L16.6322 38.8778C17.5036 37.7186 18.179 36.7974 18.3751 36.1319C18.4448 35.8939 18.5145 35.5898 18.5886 35.2504L18.5913 35.2385C18.9135 33.8335 19.3553 31.9069 20.85 30.9839C22.1572 30.1773 23.0287 30.2875 23.5298 30.5431C23.833 30.6981 24.0927 30.928 24.2846 31.2116C24.4766 31.4951 24.5946 31.8231 24.6278 32.1651C24.7891 33.1524 24.3708 35.3473 24.0309 36.8591L30.5669 30.2478L31.4383 29.3663L31.4428 29.3618C33.0257 27.743 33.7485 27.0039 34.5625 27.0039C35.1072 27.0039 35.5516 27.3389 36.0527 27.8457C37.0157 28.8198 37.312 29.6528 36.9242 30.6754C37.3307 30.5344 37.7699 30.5221 38.1835 30.6401C38.5947 30.7409 38.9767 30.9382 39.2984 31.2162C39.6202 31.4942 39.8726 31.8449 40.0353 32.24C40.173 32.6013 40.2273 32.9896 40.194 33.3754C40.1608 33.7611 40.041 34.1341 39.8436 34.4658L39.7739 34.5716C39.9248 34.5825 40.0725 34.6214 40.2096 34.6862C40.9068 35.0212 41.8698 35.5677 42.1704 36.5109C42.2606 36.8458 42.2804 37.1961 42.2286 37.5392C42.1768 37.8824 42.0546 38.2107 41.8698 38.5031C41.33 39.3605 40.7083 40.1621 40.0135 40.8964C40.1977 40.84 40.3879 40.806 40.58 40.795C40.9964 40.7526 41.4156 40.8423 41.7794 41.0516C42.1432 41.2608 42.4336 41.5794 42.6105 41.963C42.8173 42.4241 42.8825 42.9372 42.7979 43.4362C42.7132 43.9351 42.4825 44.3969 42.1356 44.7618C41.4166 45.5772 32.5887 54.833 29.5995 56.7723C27.1115 58.3678 23.4993 60.9771 21.7564 62.674C21.7144 62.7138 21.6651 62.7448 21.6113 62.7652C21.5574 62.7856 21.5001 62.7951 21.4426 62.793ZM12.2923 52.4838L21.4426 61.7396C23.8656 59.6496 26.4312 57.735 29.1202 56.0098C31.9133 54.2248 40.2227 45.5419 41.4863 44.1448C41.7146 43.9092 41.8677 43.6099 41.926 43.2854C41.9842 42.9608 41.9449 42.6261 41.8131 42.3245C41.7133 42.0984 41.5452 41.9101 41.3331 41.7866C41.121 41.6631 40.8757 41.6107 40.6323 41.6369C39.8523 41.6898 38.6061 42.4567 37.3076 43.6864C37.2664 43.7266 37.2178 43.7582 37.1645 43.7794C37.1113 43.8007 37.0544 43.8111 36.9971 43.81C36.9399 43.809 36.8834 43.7966 36.8309 43.7735C36.7783 43.7504 36.7309 43.717 36.6911 43.6754C36.6513 43.6337 36.6201 43.5845 36.5991 43.5306C36.5781 43.4767 36.5678 43.4192 36.5688 43.3612C36.5698 43.3033 36.5821 43.2462 36.605 43.1931C36.6278 43.14 36.6608 43.0919 36.702 43.0517C37.5734 42.2055 40.3926 39.3494 41.1029 38.0448C41.2285 37.857 41.3143 37.6448 41.3548 37.4218C41.3953 37.1988 41.3897 36.9696 41.3382 36.7489C41.19 36.3082 40.6976 35.8674 39.8349 35.4487C39.617 35.3473 39.1944 35.4796 38.6758 35.8145C38.5858 35.8748 38.4769 35.8991 38.3702 35.8828C38.2634 35.8664 38.1665 35.8106 38.0982 35.7261C38.0298 35.6416 37.9949 35.5344 38.0002 35.4253C38.0055 35.3163 38.0506 35.2131 38.1268 35.1358C38.49 34.7824 38.8183 34.3942 39.1072 33.9766C39.2363 33.7607 39.3148 33.5178 39.3367 33.2664C39.3586 33.015 39.3233 32.762 39.2336 32.5265C39.1171 32.2583 38.9402 32.0213 38.717 31.8345C38.4938 31.6478 38.2305 31.5165 37.9482 31.4511C37.2423 31.2395 36.41 31.8301 35.8392 32.3635C35.758 32.4387 35.6517 32.4801 35.5415 32.4793C35.4314 32.4784 35.3256 32.4354 35.2456 32.3589C35.1655 32.2824 35.117 32.178 35.11 32.0669C35.1029 31.9557 35.1377 31.8459 35.2074 31.7596C36.654 29.9966 36.4057 29.4148 35.434 28.4364C35.0288 28.0265 34.7673 27.8501 34.5625 27.8501C34.1268 27.8501 33.3381 28.6391 32.0614 29.9481C31.7956 30.2214 31.5037 30.5211 31.19 30.8296L23.5559 38.5516C23.4875 38.6228 23.3973 38.6685 23.3 38.6814C23.2027 38.6943 23.1039 38.6735 23.0197 38.6225C22.9355 38.5715 22.8707 38.4932 22.836 38.4004C22.8013 38.3075 22.7985 38.2055 22.8283 38.1109C23.1507 36.8591 23.9525 33.3596 23.7738 32.2533C23.7585 32.0545 23.6957 31.8625 23.591 31.6937C23.4863 31.5248 23.3427 31.3841 23.1725 31.2836C22.7368 31.0809 22.0701 31.2263 21.3119 31.6979C20.1251 32.4323 19.732 34.1493 19.4446 35.4047L19.4426 35.4135L19.4389 35.4296C19.3619 35.763 19.2889 36.0788 19.2117 36.339C18.9697 37.1478 18.2904 38.065 17.3524 39.3314L17.3293 39.3626C17.1884 39.5578 17.0433 39.7565 16.8945 39.9601C16.3715 40.676 15.8039 41.4529 15.2204 42.3553C13.4993 44.9998 14.3794 50.0068 14.3925 50.0552C14.4052 50.1257 14.4008 50.1983 14.3795 50.2667C14.3582 50.335 14.3208 50.3971 14.2705 50.4475L12.2923 52.4838Z" fill="black"/>
<path d="M21.4426 62.793C21.3853 62.7933 21.3285 62.7822 21.2754 62.7603C21.2223 62.7383 21.174 62.706 21.1333 62.6652L11.3816 52.7967C11.3004 52.7141 11.2549 52.6024 11.2549 52.486C11.2549 52.3696 11.3004 52.2578 11.3816 52.1753L13.4949 50.0332C13.3293 48.9666 12.7803 44.5679 14.4927 41.919C15.239 40.763 15.956 39.7927 16.5907 38.9339L16.6322 38.8778C17.5036 37.7186 18.179 36.7974 18.3751 36.1319C18.4448 35.8939 18.5145 35.5898 18.5886 35.2504L18.5913 35.2385C18.9135 33.8335 19.3553 31.9069 20.85 30.9839C22.1572 30.1773 23.0287 30.2875 23.5298 30.5431C23.833 30.6981 24.0927 30.928 24.2846 31.2116C24.4766 31.4951 24.5946 31.8231 24.6278 32.1651C24.7891 33.1524 24.3708 35.3473 24.0309 36.8591L30.5669 30.2478L31.4383 29.3663L31.4428 29.3618C33.0257 27.743 33.7485 27.0039 34.5625 27.0039C35.1072 27.0039 35.5516 27.3389 36.0527 27.8457C37.0157 28.8198 37.312 29.6528 36.9242 30.6754C37.3307 30.5344 37.7699 30.5221 38.1835 30.6401C38.5947 30.7409 38.9767 30.9382 39.2984 31.2162C39.6202 31.4942 39.8726 31.8449 40.0353 32.24C40.173 32.6013 40.2273 32.9896 40.194 33.3754C40.1608 33.7611 40.041 34.1341 39.8436 34.4658L39.7739 34.5716C39.9248 34.5825 40.0725 34.6214 40.2096 34.6862C40.9068 35.0212 41.8698 35.5677 42.1704 36.5109C42.2606 36.8458 42.2804 37.1961 42.2286 37.5392C42.1768 37.8824 42.0546 38.2107 41.8698 38.5031C41.33 39.3605 40.7083 40.1621 40.0135 40.8964C40.1977 40.84 40.3879 40.806 40.58 40.795C40.9964 40.7526 41.4156 40.8423 41.7794 41.0516C42.1432 41.2608 42.4336 41.5794 42.6105 41.963C42.8173 42.4241 42.8825 42.9372 42.7979 43.4362C42.7132 43.9351 42.4825 44.3969 42.1356 44.7618C41.4166 45.5772 32.5887 54.833 29.5995 56.7723C27.1115 58.3678 23.4993 60.9771 21.7564 62.674C21.7144 62.7138 21.6651 62.7448 21.6113 62.7652C21.5574 62.7856 21.5001 62.7951 21.4426 62.793ZM12.2923 52.4838L21.4426 61.7396C23.8656 59.6496 26.4312 57.735 29.1202 56.0098C31.9133 54.2248 40.2227 45.5419 41.4863 44.1448C41.7146 43.9092 41.8677 43.6099 41.926 43.2854C41.9842 42.9608 41.9449 42.6261 41.8131 42.3245C41.7133 42.0984 41.5452 41.9101 41.3331 41.7866C41.121 41.6631 40.8757 41.6107 40.6323 41.6369C39.8523 41.6898 38.6061 42.4567 37.3076 43.6864C37.2664 43.7266 37.2178 43.7582 37.1645 43.7794C37.1113 43.8007 37.0544 43.8111 36.9971 43.81C36.9399 43.809 36.8834 43.7966 36.8309 43.7735C36.7783 43.7504 36.7309 43.717 36.6911 43.6754C36.6513 43.6337 36.6201 43.5845 36.5991 43.5306C36.5781 43.4767 36.5678 43.4192 36.5688 43.3612C36.5698 43.3033 36.5821 43.2462 36.605 43.1931C36.6278 43.14 36.6608 43.0919 36.702 43.0517C37.5734 42.2055 40.3926 39.3494 41.1029 38.0448C41.2285 37.857 41.3143 37.6448 41.3548 37.4218C41.3953 37.1988 41.3897 36.9696 41.3382 36.7489C41.19 36.3082 40.6976 35.8674 39.8349 35.4487C39.617 35.3473 39.1944 35.4796 38.6758 35.8145C38.5858 35.8748 38.4769 35.8991 38.3702 35.8828C38.2634 35.8664 38.1665 35.8106 38.0982 35.7261C38.0298 35.6416 37.9949 35.5344 38.0002 35.4253C38.0055 35.3163 38.0506 35.2131 38.1268 35.1358C38.49 34.7824 38.8183 34.3942 39.1072 33.9766C39.2363 33.7607 39.3148 33.5178 39.3367 33.2664C39.3586 33.015 39.3233 32.762 39.2336 32.5265C39.1171 32.2583 38.9402 32.0213 38.717 31.8345C38.4938 31.6478 38.2305 31.5165 37.9482 31.4511C37.2423 31.2395 36.41 31.8301 35.8392 32.3635C35.758 32.4387 35.6517 32.4801 35.5415 32.4793C35.4314 32.4784 35.3256 32.4354 35.2456 32.3589C35.1655 32.2824 35.117 32.178 35.11 32.0669C35.1029 31.9557 35.1377 31.8459 35.2074 31.7596C36.654 29.9966 36.4057 29.4148 35.434 28.4364C35.0288 28.0265 34.7673 27.8501 34.5625 27.8501C34.1268 27.8501 33.3381 28.6391 32.0614 29.9481C31.7956 30.2214 31.5037 30.5211 31.19 30.8296L23.5559 38.5516C23.4875 38.6228 23.3973 38.6685 23.3 38.6814C23.2027 38.6943 23.1039 38.6735 23.0197 38.6225C22.9355 38.5715 22.8707 38.4932 22.836 38.4004C22.8013 38.3075 22.7985 38.2055 22.8283 38.1109C23.1507 36.8591 23.9525 33.3596 23.7738 32.2533C23.7585 32.0545 23.6957 31.8625 23.591 31.6937C23.4863 31.5248 23.3427 31.3841 23.1725 31.2836C22.7368 31.0809 22.0701 31.2263 21.3119 31.6979C20.1251 32.4323 19.732 34.1493 19.4446 35.4047L19.4426 35.4135L19.4389 35.4296C19.3619 35.763 19.2889 36.0788 19.2117 36.339C18.9697 37.1478 18.2904 38.065 17.3524 39.3314L17.3293 39.3626C17.1884 39.5578 17.0433 39.7565 16.8945 39.9601C16.3715 40.676 15.8039 41.4529 15.2204 42.3553C13.4993 44.9998 14.3794 50.0068 14.3925 50.0552C14.4052 50.1257 14.4008 50.1983 14.3795 50.2667C14.3582 50.335 14.3208 50.3971 14.2705 50.4475L12.2923 52.4838Z" stroke="black"/>
<path d="M26.7622 41.3949C26.7046 41.3946 26.6476 41.3828 26.5945 41.3601C26.5414 41.3374 26.4932 41.3043 26.4529 41.2627C26.3717 41.1801 26.3262 41.0684 26.3262 40.9519C26.3262 40.8355 26.3717 40.7238 26.4529 40.6412L35.246 31.7468C35.2866 31.7057 35.3348 31.6731 35.3879 31.6509C35.441 31.6286 35.4979 31.6172 35.5553 31.6172C35.6128 31.6172 35.6697 31.6286 35.7227 31.6509C35.7758 31.6731 35.8241 31.7057 35.8647 31.7468C35.9053 31.7879 35.9375 31.8367 35.9595 31.8904C35.9815 31.9441 35.9928 32.0016 35.9928 32.0597C35.9928 32.1179 35.9815 32.1754 35.9595 32.2291C35.9375 32.2828 35.9053 32.3316 35.8647 32.3727L27.0716 41.2627C27.0313 41.3043 26.9831 41.3374 26.93 41.3601C26.8769 41.3828 26.8199 41.3946 26.7622 41.3949Z" fill="black"/>
<path d="M26.7622 41.3949C26.7046 41.3946 26.6476 41.3828 26.5945 41.3601C26.5414 41.3374 26.4932 41.3043 26.4529 41.2627C26.3717 41.1801 26.3262 41.0684 26.3262 40.9519C26.3262 40.8355 26.3717 40.7238 26.4529 40.6412L35.246 31.7468C35.2866 31.7057 35.3348 31.6731 35.3879 31.6509C35.441 31.6286 35.4979 31.6172 35.5553 31.6172C35.6128 31.6172 35.6697 31.6286 35.7227 31.6509C35.7758 31.6731 35.8241 31.7057 35.8647 31.7468C35.9053 31.7879 35.9375 31.8367 35.9595 31.8904C35.9815 31.9441 35.9928 32.0016 35.9928 32.0597C35.9928 32.1179 35.9815 32.1754 35.9595 32.2291C35.9375 32.2828 35.9053 32.3316 35.8647 32.3727L27.0716 41.2627C27.0313 41.3043 26.9831 41.3374 26.93 41.3601C26.8769 41.3828 26.8199 41.3946 26.7622 41.3949Z" stroke="black"/>
<path d="M29.8951 44.56C29.8377 44.5603 29.7809 44.5492 29.7278 44.5272C29.6747 44.5053 29.6264 44.473 29.5857 44.4321C29.5045 44.3496 29.459 44.2379 29.459 44.1214C29.459 44.005 29.5045 43.8933 29.5857 43.8107L38.1435 35.1499C38.184 35.1086 38.2322 35.0758 38.2853 35.0534C38.3384 35.0311 38.3953 35.0195 38.4528 35.0195C38.5104 35.0195 38.5673 35.0311 38.6204 35.0534C38.6735 35.0758 38.7217 35.1086 38.7622 35.1499C38.8434 35.2325 38.8889 35.3442 38.8889 35.4606C38.8889 35.5771 38.8434 35.6888 38.7622 35.7714L30.2001 44.4321C30.1189 44.5136 30.0094 44.5595 29.8951 44.56Z" fill="black"/>
<path d="M29.8951 44.56C29.8377 44.5603 29.7809 44.5492 29.7278 44.5272C29.6747 44.5053 29.6264 44.473 29.5857 44.4321C29.5045 44.3496 29.459 44.2379 29.459 44.1214C29.459 44.005 29.5045 43.8933 29.5857 43.8107L38.1435 35.1499C38.184 35.1086 38.2322 35.0758 38.2853 35.0534C38.3384 35.0311 38.3953 35.0195 38.4528 35.0195C38.5104 35.0195 38.5673 35.0311 38.6204 35.0534C38.6735 35.0758 38.7217 35.1086 38.7622 35.1499C38.8434 35.2325 38.8889 35.3442 38.8889 35.4606C38.8889 35.5771 38.8434 35.6888 38.7622 35.7714L30.2001 44.4321C30.1189 44.5136 30.0094 44.5595 29.8951 44.56Z" stroke="black"/>
<path d="M32.8501 48.0418C32.7925 48.0415 32.7355 48.0297 32.6824 48.007C32.6292 47.9843 32.5811 47.9512 32.5408 47.9095C32.4596 47.827 32.4141 47.7152 32.4141 47.5988C32.4141 47.4824 32.4596 47.3707 32.5408 47.2881L36.7151 43.0701C36.7541 43.0239 36.8022 42.9865 36.8563 42.96C36.9103 42.9335 36.9692 42.9187 37.0292 42.9163C37.0892 42.914 37.1491 42.9242 37.205 42.9464C37.2609 42.9685 37.3117 43.0022 37.3541 43.0451C37.3966 43.0881 37.4298 43.1394 37.4517 43.196C37.4737 43.2526 37.4838 43.3131 37.4814 43.3738C37.4791 43.4345 37.4644 43.494 37.4383 43.5487C37.4121 43.6034 37.3751 43.652 37.3295 43.6915L33.1595 47.9095C33.1192 47.9512 33.071 47.9843 33.0179 48.007C32.9648 48.0297 32.9078 48.0415 32.8501 48.0418Z" fill="black"/>
<path d="M32.8501 48.0418C32.7925 48.0415 32.7355 48.0297 32.6824 48.007C32.6292 47.9843 32.5811 47.9512 32.5408 47.9095C32.4596 47.827 32.4141 47.7152 32.4141 47.5988C32.4141 47.4824 32.4596 47.3707 32.5408 47.2881L36.7151 43.0701C36.7541 43.0239 36.8022 42.9865 36.8563 42.96C36.9103 42.9335 36.9692 42.9187 37.0292 42.9163C37.0892 42.914 37.1491 42.9242 37.205 42.9464C37.2609 42.9685 37.3117 43.0022 37.3541 43.0451C37.3966 43.0881 37.4298 43.1394 37.4517 43.196C37.4737 43.2526 37.4838 43.3131 37.4814 43.3738C37.4791 43.4345 37.4644 43.494 37.4383 43.5487C37.4121 43.6034 37.3751 43.652 37.3295 43.6915L33.1595 47.9095C33.1192 47.9512 33.071 47.9843 33.0179 48.007C32.9648 48.0297 32.9078 48.0415 32.8501 48.0418Z" stroke="black"/>
<path d="M22.3026 63.2095L14.1587 71.4604C9.72231 67.5903 6.18944 62.7733 3.81445 57.3563L10.1544 50.9434L21.4442 62.3632L22.3026 63.2095Z" fill="#394EFF"/>
<path d="M14.1578 71.9052C14.0525 71.9063 13.9503 71.8687 13.8702 71.7994C9.39051 67.8786 5.82 63.0074 3.41266 57.5323C3.37738 57.4509 3.36724 57.3607 3.38357 57.2734C3.3999 57.1861 3.44194 57.1058 3.50416 57.0431L9.84407 50.6301C9.9257 50.548 10.0361 50.502 10.1513 50.502C10.2664 50.502 10.3768 50.548 10.4584 50.6301L22.6023 62.9183C22.6835 63.0009 22.729 63.1126 22.729 63.229C22.729 63.3455 22.6835 63.4572 22.6023 63.5398L14.4628 71.7774C14.3817 71.8588 14.2721 71.9047 14.1578 71.9052ZM4.33641 57.453C6.63178 62.5711 9.97139 67.1404 14.136 70.8606L21.696 63.2136L10.1665 51.5557L4.33641 57.453Z" fill="black"/>
<path d="M14.1578 71.9052C14.0525 71.9063 13.9503 71.8687 13.8702 71.7994C9.39051 67.8786 5.82 63.0074 3.41266 57.5323C3.37738 57.4509 3.36724 57.3607 3.38357 57.2734C3.3999 57.1861 3.44194 57.1058 3.50416 57.0431L9.84407 50.6301C9.9257 50.548 10.0361 50.502 10.1513 50.502C10.2664 50.502 10.3768 50.548 10.4584 50.6301L22.6023 62.9183C22.6835 63.0009 22.729 63.1126 22.729 63.229C22.729 63.3455 22.6835 63.4572 22.6023 63.5398L14.4628 71.7774C14.3817 71.8588 14.2721 71.9047 14.1578 71.9052ZM4.33641 57.453C6.63178 62.5711 9.97139 67.1404 14.136 70.8606L21.696 63.2136L10.1665 51.5557L4.33641 57.453Z" stroke="black"/>
<path d="M44.938 55.9396C46.1842 56.3231 47.9576 58.0641 50.7725 59.9064C53.5873 61.7487 58.7071 60.8144 58.7071 60.8144L60.9773 63.1107L70.7333 53.2466C69.0689 51.4836 66.4632 47.8033 64.851 45.2294C63.0253 42.3116 54.2017 33.7037 53.047 32.6327C51.7398 31.4294 49.7311 32.1919 49.8356 33.8491C49.9184 35.1185 51.3171 36.7669 51.9794 37.4853C51.0078 36.4848 48.2539 33.6993 46.9293 32.9632C45.304 32.0817 44.4108 33.0426 43.7615 34.4397C43.5655 34.8585 43.7615 35.4358 44.1493 36.0397C43.7751 35.6484 43.3635 35.2955 42.9206 34.9863C41.84 34.3296 40.267 34.713 39.7789 36.4099C39.5219 37.2914 40.145 38.2655 40.7855 38.9707C38.938 37.4236 38.097 37.5691 36.9118 38.7679C35.5044 40.1916 36.1537 40.5309 39.2953 43.6955L46.9293 51.4175C46.9293 51.4175 42.3803 50.2143 40.9511 50.4523C39.5219 50.6903 39.0774 51.9112 40.1057 53.6081C41.1341 55.305 43.6918 55.5562 44.938 55.9396Z" fill="#FFC9B0"/>
<path d="M60.9824 63.5714C60.9251 63.5717 60.8682 63.5606 60.8151 63.5387C60.762 63.5167 60.7138 63.4844 60.673 63.4436L58.5554 61.3059C57.5009 61.4734 53.1479 62.0243 50.5336 60.2966C49.3658 59.5209 48.3898 58.7848 47.527 58.1281C46.381 57.2466 45.4704 56.5678 44.8124 56.3651C44.5771 56.2946 44.2765 56.224 43.9409 56.1491C42.5466 55.823 40.6381 55.3734 39.723 53.8616C38.9257 52.5393 39.0346 51.6578 39.2655 51.1466C39.419 50.8404 39.6464 50.5785 39.9268 50.385C40.2071 50.1916 40.5312 50.073 40.869 50.0403C41.8451 49.8772 44.015 50.3003 45.5096 50.6397L38.9736 44.0284L38.1021 43.1469C36.4986 41.547 35.7666 40.8153 35.7666 39.9911C35.7666 39.4402 36.0978 38.9862 36.5989 38.4794C37.5618 37.5053 38.3854 37.2012 39.3919 37.5978C39.2574 37.1874 39.2453 36.7459 39.357 36.3285C39.4587 35.9123 39.655 35.5258 39.9304 35.1998C40.2057 34.8738 40.5525 34.6174 40.9431 34.4509C41.2976 34.3161 41.6776 34.264 42.0548 34.2983C42.432 34.3326 42.7967 34.4526 43.1218 34.6492C43.145 34.6492 43.1682 34.6688 43.1915 34.6884C43.2031 34.6982 43.2147 34.708 43.2263 34.7153C43.2372 34.5627 43.2756 34.4133 43.3396 34.2746C43.6708 33.5694 44.2111 32.5953 45.1436 32.2868C45.475 32.1965 45.8214 32.1773 46.1606 32.2304C46.4997 32.2836 46.8242 32.4079 47.1131 32.5953C47.9608 33.1394 48.7533 33.7669 49.4791 34.4685C49.4233 34.2837 49.3897 34.0928 49.3789 33.8999C49.34 33.4775 49.4319 33.0534 49.6419 32.6862C49.8519 32.319 50.1696 32.0269 50.551 31.8504C51.0064 31.6407 51.5134 31.574 52.0067 31.6589C52.4999 31.7437 52.9567 31.9763 53.3179 32.3264C54.2286 33.1771 63.2744 41.9525 65.1916 45.0157C66.7689 47.528 69.3485 51.1862 71.026 52.9492C71.1046 53.0314 71.1485 53.1413 71.1485 53.2556C71.1485 53.3699 71.1046 53.4797 71.026 53.5619L61.27 63.4303C61.1953 63.5125 61.0925 63.5629 60.9824 63.5714ZM58.7079 60.3936C58.8222 60.394 58.9317 60.4399 59.0129 60.5214L60.9824 62.5092L70.1328 53.2534C68.0638 50.8047 66.1708 48.2094 64.4683 45.4873C62.7253 42.6709 54.1153 34.2569 52.734 32.9788C52.5018 32.7468 52.2058 32.5912 51.8847 32.5322C51.5636 32.4732 51.2324 32.5137 50.9344 32.6482C50.7114 32.7497 50.5257 32.9198 50.4036 33.1342C50.2816 33.3487 50.2295 33.5965 50.2547 33.8426C50.307 34.6316 51.0652 35.8921 52.2808 37.2056C52.3254 37.2461 52.3612 37.2955 52.3861 37.3507C52.4109 37.4059 52.4242 37.4657 52.4252 37.5263C52.4261 37.5869 52.4147 37.6471 52.3916 37.7031C52.3685 37.759 52.3342 37.8096 52.291 37.8515C52.2477 37.8935 52.1963 37.9259 52.1401 37.9469C52.0838 37.9678 52.0239 37.9768 51.964 37.9733C51.9042 37.9698 51.8457 37.9538 51.7923 37.9263C51.7388 37.8989 51.6915 37.8606 51.6534 37.8138C50.8168 36.9544 47.9932 34.0851 46.7035 33.3666C46.5178 33.2395 46.3081 33.1527 46.0876 33.1117C45.8671 33.0708 45.6406 33.0765 45.4224 33.1286C44.9649 33.2785 44.551 33.7765 44.1152 34.6492C44.015 34.8652 44.1457 35.2927 44.4769 35.8216C44.5325 35.9127 44.5534 36.0212 44.5357 36.1268C44.518 36.2324 44.4629 36.3279 44.3807 36.3954C44.2985 36.4629 44.1948 36.4978 44.089 36.4936C43.9832 36.4894 43.8826 36.4464 43.8059 36.3726C43.4581 36.0048 43.0741 35.674 42.6599 35.3853C42.4464 35.2547 42.2063 35.1753 41.9578 35.1531C41.7093 35.131 41.4591 35.1667 41.2263 35.2575C40.9616 35.3748 40.7276 35.5531 40.5431 35.778C40.3585 36.003 40.2284 36.2685 40.1631 36.5533C39.954 37.2717 40.5379 38.1135 41.0651 38.6909C41.1395 38.773 41.1805 38.8807 41.1796 38.9921C41.1788 39.1035 41.1363 39.2104 41.0606 39.2914C40.985 39.3724 40.8818 39.4214 40.7719 39.4286C40.662 39.4357 40.5534 39.4005 40.4682 39.33C38.7252 37.8667 38.1501 38.1179 37.1827 39.0964C36.7731 39.5107 36.6032 39.7752 36.6032 39.9779C36.6032 40.4187 37.3832 41.2164 38.6773 42.5122C38.9474 42.7811 39.2437 43.0764 39.5488 43.3937L47.1871 51.1157C47.2575 51.1849 47.3027 51.2762 47.3155 51.3746C47.3282 51.4731 47.3077 51.573 47.2572 51.6582C47.2068 51.7434 47.1294 51.8088 47.0376 51.844C46.9458 51.8791 46.845 51.8818 46.7514 51.8518C45.5096 51.5256 42.0542 50.7146 40.9562 50.8953C40.7607 50.9104 40.5717 50.9732 40.4055 51.0783C40.2393 51.1835 40.1008 51.3279 40.0019 51.4992C39.7971 51.9399 39.9409 52.6187 40.4072 53.3856C41.1348 54.5844 42.8385 54.9855 44.0804 55.2764C44.1312 55.2884 44.1817 55.3003 44.2316 55.312C44.511 55.3774 44.7736 55.439 44.9954 55.51C45.8015 55.7568 46.7383 56.4532 47.9802 57.4141C48.1695 57.5539 48.3621 57.6978 48.5594 57.8453C49.2704 58.3767 50.0427 58.9539 50.9431 59.5473C53.5793 61.2883 58.5075 60.3936 58.5554 60.3847L58.7079 60.3936Z" fill="black"/>
<path d="M60.9824 63.5714C60.9251 63.5717 60.8682 63.5606 60.8151 63.5387C60.762 63.5167 60.7138 63.4844 60.673 63.4436L58.5554 61.3059C57.5009 61.4734 53.1479 62.0243 50.5336 60.2966C49.3658 59.5209 48.3898 58.7848 47.527 58.1281C46.381 57.2466 45.4704 56.5678 44.8124 56.3651C44.5771 56.2946 44.2765 56.224 43.9409 56.1491C42.5466 55.823 40.6381 55.3734 39.723 53.8616C38.9257 52.5393 39.0346 51.6578 39.2655 51.1466C39.419 50.8404 39.6464 50.5785 39.9268 50.385C40.2071 50.1916 40.5312 50.073 40.869 50.0403C41.8451 49.8772 44.015 50.3003 45.5096 50.6397L38.9736 44.0284L38.1021 43.1469C36.4986 41.547 35.7666 40.8153 35.7666 39.9911C35.7666 39.4402 36.0978 38.9862 36.5989 38.4794C37.5618 37.5053 38.3854 37.2012 39.3919 37.5978C39.2574 37.1874 39.2453 36.7459 39.357 36.3285C39.4587 35.9123 39.655 35.5258 39.9304 35.1998C40.2057 34.8738 40.5525 34.6174 40.9431 34.4509C41.2976 34.3161 41.6776 34.264 42.0548 34.2983C42.432 34.3326 42.7967 34.4526 43.1218 34.6492C43.145 34.6492 43.1682 34.6688 43.1915 34.6884C43.2031 34.6982 43.2147 34.708 43.2263 34.7153C43.2372 34.5627 43.2756 34.4133 43.3396 34.2746C43.6708 33.5694 44.2111 32.5953 45.1436 32.2868C45.475 32.1965 45.8214 32.1773 46.1606 32.2304C46.4997 32.2836 46.8242 32.4079 47.1131 32.5953C47.9608 33.1394 48.7533 33.7669 49.4791 34.4685C49.4233 34.2837 49.3897 34.0928 49.3789 33.8999C49.34 33.4775 49.4319 33.0534 49.6419 32.6862C49.8519 32.319 50.1696 32.0269 50.551 31.8504C51.0064 31.6407 51.5134 31.574 52.0067 31.6589C52.4999 31.7437 52.9567 31.9763 53.3179 32.3264C54.2286 33.1771 63.2744 41.9525 65.1916 45.0157C66.7689 47.528 69.3485 51.1862 71.026 52.9492C71.1046 53.0314 71.1485 53.1413 71.1485 53.2556C71.1485 53.3699 71.1046 53.4797 71.026 53.5619L61.27 63.4303C61.1953 63.5125 61.0925 63.5629 60.9824 63.5714ZM58.7079 60.3936C58.8222 60.394 58.9317 60.4399 59.0129 60.5214L60.9824 62.5092L70.1328 53.2534C68.0638 50.8047 66.1708 48.2094 64.4683 45.4873C62.7253 42.6709 54.1153 34.2569 52.734 32.9788C52.5018 32.7468 52.2058 32.5912 51.8847 32.5322C51.5636 32.4732 51.2324 32.5137 50.9344 32.6482C50.7114 32.7497 50.5257 32.9198 50.4036 33.1342C50.2816 33.3487 50.2295 33.5965 50.2547 33.8426C50.307 34.6316 51.0652 35.8921 52.2808 37.2056C52.3254 37.2461 52.3612 37.2955 52.3861 37.3507C52.4109 37.4059 52.4242 37.4657 52.4252 37.5263C52.4261 37.5869 52.4147 37.6471 52.3916 37.7031C52.3685 37.759 52.3342 37.8096 52.291 37.8515C52.2477 37.8935 52.1963 37.9259 52.1401 37.9469C52.0838 37.9678 52.0239 37.9768 51.964 37.9733C51.9042 37.9698 51.8457 37.9538 51.7923 37.9263C51.7388 37.8989 51.6915 37.8606 51.6534 37.8138C50.8168 36.9544 47.9932 34.0851 46.7035 33.3666C46.5178 33.2395 46.3081 33.1527 46.0876 33.1117C45.8671 33.0708 45.6406 33.0765 45.4224 33.1286C44.9649 33.2785 44.551 33.7765 44.1152 34.6492C44.015 34.8652 44.1457 35.2927 44.4769 35.8216C44.5325 35.9127 44.5534 36.0212 44.5357 36.1268C44.518 36.2324 44.4629 36.3279 44.3807 36.3954C44.2985 36.4629 44.1948 36.4978 44.089 36.4936C43.9832 36.4894 43.8826 36.4464 43.8059 36.3726C43.4581 36.0048 43.0741 35.674 42.6599 35.3853C42.4464 35.2547 42.2063 35.1753 41.9578 35.1531C41.7093 35.131 41.4591 35.1667 41.2263 35.2575C40.9616 35.3748 40.7276 35.5531 40.5431 35.778C40.3585 36.003 40.2284 36.2685 40.1631 36.5533C39.954 37.2717 40.5379 38.1135 41.0651 38.6909C41.1395 38.773 41.1805 38.8807 41.1796 38.9921C41.1788 39.1035 41.1363 39.2104 41.0606 39.2914C40.985 39.3724 40.8818 39.4214 40.7719 39.4286C40.662 39.4357 40.5534 39.4005 40.4682 39.33C38.7252 37.8667 38.1501 38.1179 37.1827 39.0964C36.7731 39.5107 36.6032 39.7752 36.6032 39.9779C36.6032 40.4187 37.3832 41.2164 38.6773 42.5122C38.9474 42.7811 39.2437 43.0764 39.5488 43.3937L47.1871 51.1157C47.2575 51.1849 47.3027 51.2762 47.3155 51.3746C47.3282 51.4731 47.3077 51.573 47.2572 51.6582C47.2068 51.7434 47.1294 51.8088 47.0376 51.844C46.9458 51.8791 46.845 51.8818 46.7514 51.8518C45.5096 51.5256 42.0542 50.7146 40.9562 50.8953C40.7607 50.9104 40.5717 50.9732 40.4055 51.0783C40.2393 51.1835 40.1008 51.3279 40.0019 51.4992C39.7971 51.9399 39.9409 52.6187 40.4072 53.3856C41.1348 54.5844 42.8385 54.9855 44.0804 55.2764C44.1312 55.2884 44.1817 55.3003 44.2316 55.312C44.511 55.3774 44.7736 55.439 44.9954 55.51C45.8015 55.7568 46.7383 56.4532 47.9802 57.4141C48.1695 57.5539 48.3621 57.6978 48.5594 57.8453C49.2704 58.3767 50.0427 58.9539 50.9431 59.5473C53.5793 61.2883 58.5075 60.3936 58.5554 60.3847L58.7079 60.3936Z" stroke="black"/>
<path d="M49.5831 48.3292C49.5255 48.329 49.4684 48.3172 49.4153 48.2945C49.3622 48.2718 49.3141 48.2386 49.2737 48.197L40.4763 39.3026C40.3952 39.22 40.3496 39.1083 40.3496 38.9919C40.3496 38.8754 40.3952 38.7637 40.4763 38.6812C40.5168 38.6398 40.565 38.6071 40.6181 38.5847C40.6712 38.5623 40.7282 38.5508 40.7857 38.5508C40.8432 38.5508 40.9002 38.5623 40.9533 38.5847C41.0064 38.6071 41.0546 38.6398 41.0951 38.6812L49.8838 47.5755C49.9649 47.6581 50.0105 47.7698 50.0105 47.8863C50.0105 48.0027 49.9649 48.1144 49.8838 48.197C49.8044 48.279 49.6965 48.3264 49.5831 48.3292Z" fill="black"/>
<path d="M49.5831 48.3292C49.5255 48.329 49.4684 48.3172 49.4153 48.2945C49.3622 48.2718 49.3141 48.2386 49.2737 48.197L40.4763 39.3026C40.3952 39.22 40.3496 39.1083 40.3496 38.9919C40.3496 38.8754 40.3952 38.7637 40.4763 38.6812C40.5168 38.6398 40.565 38.6071 40.6181 38.5847C40.6712 38.5623 40.7282 38.5508 40.7857 38.5508C40.8432 38.5508 40.9002 38.5623 40.9533 38.5847C41.0064 38.6071 41.0546 38.6398 41.0951 38.6812L49.8838 47.5755C49.9649 47.6581 50.0105 47.7698 50.0105 47.8863C50.0105 48.0027 49.9649 48.1144 49.8838 48.197C49.8044 48.279 49.6965 48.3264 49.5831 48.3292Z" stroke="black"/>
<path d="M52.7079 45.1383C52.6506 45.1386 52.5937 45.1275 52.5406 45.1056C52.4876 45.0836 52.4393 45.0513 52.3986 45.0105L43.8408 36.3673C43.7952 36.3278 43.7581 36.2792 43.732 36.2245C43.7058 36.1698 43.6911 36.1103 43.6888 36.0496C43.6865 35.9889 43.6966 35.9283 43.7185 35.8718C43.7404 35.8152 43.7736 35.7638 43.8161 35.7209C43.8586 35.6779 43.9093 35.6443 43.9653 35.6222C44.0212 35.6 44.081 35.5898 44.141 35.5921C44.201 35.5945 44.2599 35.6093 44.314 35.6358C44.368 35.6622 44.4161 35.6997 44.4552 35.7459L53.0173 44.4022C53.0581 44.4432 53.0906 44.492 53.1127 44.5457C53.1348 44.5994 53.1462 44.657 53.1462 44.7152C53.1462 44.7733 53.1348 44.831 53.1127 44.8847C53.0906 44.9384 53.0581 44.9871 53.0173 45.0281C52.9323 45.1042 52.8213 45.1437 52.7079 45.1383Z" fill="black"/>
<path d="M52.7079 45.1383C52.6506 45.1386 52.5937 45.1275 52.5406 45.1056C52.4876 45.0836 52.4393 45.0513 52.3986 45.0105L43.8408 36.3673C43.7952 36.3278 43.7581 36.2792 43.732 36.2245C43.7058 36.1698 43.6911 36.1103 43.6888 36.0496C43.6865 35.9889 43.6966 35.9283 43.7185 35.8718C43.7404 35.8152 43.7736 35.7638 43.8161 35.7209C43.8586 35.6779 43.9093 35.6443 43.9653 35.6222C44.0212 35.6 44.081 35.5898 44.141 35.5921C44.201 35.5945 44.2599 35.6093 44.314 35.6358C44.368 35.6622 44.4161 35.6997 44.4552 35.7459L53.0173 44.4022C53.0581 44.4432 53.0906 44.492 53.1127 44.5457C53.1348 44.5994 53.1462 44.657 53.1462 44.7152C53.1462 44.7733 53.1348 44.831 53.1127 44.8847C53.0906 44.9384 53.0581 44.9871 53.0173 45.0281C52.9323 45.1042 52.8213 45.1437 52.7079 45.1383Z" stroke="black"/>
<path d="M56.1534 42.1675C56.0958 42.1673 56.0388 42.1555 55.9856 42.1328C55.9325 42.1101 55.8844 42.0769 55.8441 42.0353L51.6741 37.8173C51.6027 37.733 51.5654 37.6245 51.5697 37.5136C51.5739 37.4027 51.6194 37.2974 51.697 37.2189C51.7746 37.1404 51.8786 37.0945 51.9883 37.0902C52.0979 37.0859 52.2051 37.1236 52.2885 37.1958L56.4584 41.4138C56.5396 41.4964 56.5852 41.6081 56.5852 41.7246C56.5852 41.841 56.5396 41.9527 56.4584 42.0353C56.378 42.1183 56.2684 42.1658 56.1534 42.1675Z" fill="black"/>
<path d="M56.1534 42.1675C56.0958 42.1673 56.0388 42.1555 55.9856 42.1328C55.9325 42.1101 55.8844 42.0769 55.8441 42.0353L51.6741 37.8173C51.6027 37.733 51.5654 37.6245 51.5697 37.5136C51.5739 37.4027 51.6194 37.2974 51.697 37.2189C51.7746 37.1404 51.8786 37.0945 51.9883 37.0902C52.0979 37.0859 52.2051 37.1236 52.2885 37.1958L56.4584 41.4138C56.5396 41.4964 56.5852 41.6081 56.5852 41.7246C56.5852 41.841 56.5396 41.9527 56.4584 42.0353C56.378 42.1183 56.2684 42.1658 56.1534 42.1675Z" stroke="black"/>
<path d="M76.2719 57.1297C73.9921 62.4348 70.5993 67.1752 66.3284 71.0222L66.006 71.3131L59.4482 64.7018L60.9777 63.1547L70.7337 53.2819L71.6052 52.4004L76.2719 57.1297Z" fill="#FAF4FF"/>
<path d="M66.0056 71.7499C65.9482 71.7503 65.8914 71.7391 65.8383 71.7172C65.7852 71.6953 65.7369 71.6629 65.6962 71.6221L59.1384 64.9711C59.0573 64.8886 59.0117 64.7769 59.0117 64.6604C59.0117 64.544 59.0573 64.4323 59.1384 64.3497L60.6678 62.8026L60.7071 62.7674L71.2823 52.0659C71.3228 52.0246 71.371 51.9918 71.4241 51.9694C71.4772 51.9471 71.5341 51.9355 71.5917 51.9355C71.6492 51.9355 71.7061 51.9471 71.7592 51.9694C71.8123 51.9918 71.8605 52.0246 71.901 52.0659L76.5982 56.8172C76.6595 56.8796 76.701 56.9591 76.7173 57.0455C76.7336 57.1319 76.724 57.2212 76.6897 57.3021C74.3789 62.6612 70.9498 67.4514 66.6374 71.3444L66.4195 71.5428L66.3106 71.6397C66.2267 71.7147 66.1175 71.7542 66.0056 71.7499ZM60.0622 64.6979L66.023 70.7009C70.1674 66.9587 73.4793 62.3692 75.7398 57.2359L71.5786 53.0268L61.2779 63.4506L61.2387 63.4858L60.0622 64.6979Z" fill="black"/>
<path d="M66.0056 71.7499C65.9482 71.7503 65.8914 71.7391 65.8383 71.7172C65.7852 71.6953 65.7369 71.6629 65.6962 71.6221L59.1384 64.9711C59.0573 64.8886 59.0117 64.7769 59.0117 64.6604C59.0117 64.544 59.0573 64.4323 59.1384 64.3497L60.6678 62.8026L60.7071 62.7674L71.2823 52.0659C71.3228 52.0246 71.371 51.9918 71.4241 51.9694C71.4772 51.9471 71.5341 51.9355 71.5917 51.9355C71.6492 51.9355 71.7061 51.9471 71.7592 51.9694C71.8123 51.9918 71.8605 52.0246 71.901 52.0659L76.5982 56.8172C76.6595 56.8796 76.701 56.9591 76.7173 57.0455C76.7336 57.1319 76.724 57.2212 76.6897 57.3021C74.3789 62.6612 70.9498 67.4514 66.6374 71.3444L66.4195 71.5428L66.3106 71.6397C66.2267 71.7147 66.1175 71.7542 66.0056 71.7499ZM60.0622 64.6979L66.023 70.7009C70.1674 66.9587 73.4793 62.3692 75.7398 57.2359L71.5786 53.0268L61.2779 63.4506L61.2387 63.4858L60.0622 64.6979Z" stroke="black"/>
<path d="M51.3273 31.2636C50.7129 30.1 50.6737 27.6009 49.9852 24.2733C49.2968 20.9456 45.0092 17.9573 45.0092 17.9573V14.7266H31.2095C31.1398 17.1771 30.4252 21.6287 29.7673 24.6038C29.0178 27.9712 29.24 40.3695 29.3054 41.9562C29.3838 43.7192 31.3359 44.6448 32.4252 43.3887C33.2575 42.4322 33.4231 40.2682 33.4536 39.2853C33.4536 40.6869 33.4536 44.6316 33.8631 46.0993C34.3817 47.8976 35.7019 47.8623 37.1355 47.3202C37.5712 47.1615 37.8239 46.6062 37.9808 45.9142C37.9733 46.4564 38.0171 46.998 38.1115 47.5317C38.4209 48.7703 39.7978 49.6209 41.3272 48.7703C42.1377 48.3295 42.3686 47.2012 42.4079 46.2448C42.6344 48.6557 43.3316 49.1581 45.0222 49.1581C47.0135 49.1581 46.7652 48.4617 46.7652 43.9661V33.0266C46.7652 33.0266 49.1399 37.13 50.3164 37.9806C51.4929 38.8313 52.6606 38.2936 53.1225 36.3543C53.5844 34.415 51.933 32.4228 51.3273 31.2636Z" fill="#FFC9B0"/>
<path d="M45.0032 49.5738C43.6393 49.5738 42.8245 49.1992 42.3888 48.2075C42.1968 48.5976 41.8931 48.9201 41.5173 49.1331C41.1545 49.3536 40.7458 49.4856 40.3238 49.5185C39.9017 49.5514 39.4779 49.4843 39.0859 49.3226C38.7359 49.166 38.426 48.9305 38.1798 48.6341C37.9336 48.3377 37.7576 47.9882 37.6654 47.6125C37.6654 47.5728 37.6654 47.5332 37.6393 47.4847C37.5264 47.5807 37.3982 47.6567 37.2602 47.7094C36.5369 47.9739 35.4693 48.2692 34.5979 47.8196C34.3 47.6482 34.0413 47.4151 33.8385 47.1356C33.6358 46.8562 33.4937 46.5365 33.4214 46.1977C33.2043 45.2055 33.0832 44.1944 33.0598 43.1785C32.9651 43.3467 32.8557 43.5061 32.733 43.6545C32.4645 43.98 32.1028 44.2133 31.6978 44.3223C31.2928 44.4312 30.8644 44.4104 30.4715 44.2628C30.0026 44.0862 29.5969 43.7712 29.3071 43.3586C29.0173 42.946 28.8567 42.4548 28.8462 41.9488C28.7678 40.0404 28.5761 27.8227 29.3168 24.4818C29.9617 21.5773 30.6807 17.1565 30.7504 14.6927C30.7504 14.5758 30.7963 14.4637 30.878 14.381C30.9597 14.2984 31.0705 14.252 31.1861 14.252H44.9814C45.0969 14.252 45.2078 14.2984 45.2895 14.381C45.3712 14.4637 45.4171 14.5758 45.4171 14.6927V17.7207C46.2886 18.3554 49.7439 21.0748 50.3845 24.1689C50.6627 25.5078 50.8308 26.6941 50.9795 27.7437L50.9945 27.8492L51.0061 27.9312C51.2053 29.3336 51.3624 30.4393 51.6829 31.0446C51.748 31.1666 51.8265 31.302 51.9101 31.4465C51.9777 31.5631 52.0486 31.6855 52.1187 31.8115C52.8768 33.0368 53.9139 34.7205 53.5043 36.4482C53.147 37.9468 52.4542 38.4977 51.9313 38.6917C51.6087 38.7974 51.265 38.8198 50.9316 38.7567C50.5982 38.6935 50.2858 38.5469 50.0228 38.3302C49.2167 37.744 47.9792 35.8929 47.16 34.5839V43.9322V45.1883C47.16 47.467 47.16 48.5072 46.6067 49.0934C46.2624 49.4945 45.7134 49.5738 45.0032 49.5738ZM42.3888 45.779C42.4972 45.7784 42.6019 45.8187 42.6824 45.8921C42.763 45.9654 42.8137 46.0665 42.8245 46.1756C43.038 48.4631 43.6175 48.6923 45.0032 48.6923C45.5783 48.6923 45.8746 48.6262 46.0315 48.4808C46.3496 48.1546 46.3452 47.0439 46.3321 45.2016V43.941V33.0236C46.3288 32.9241 46.3588 32.8264 46.4174 32.7463C46.4759 32.6663 46.5595 32.6087 46.6546 32.5828C46.7467 32.558 46.8442 32.5644 46.9324 32.601C47.0205 32.6376 47.0944 32.7025 47.1426 32.7856C47.7918 33.9051 49.6699 36.9551 50.5718 37.6074C50.7211 37.7362 50.8988 37.8266 51.0899 37.8711C51.2811 37.9156 51.48 37.9129 51.6699 37.863C52.1274 37.6912 52.4934 37.1138 52.6982 36.2367C53.025 34.8703 52.1012 33.3674 51.4215 32.2699C51.3894 32.2169 51.3575 32.1644 51.3259 32.1126C51.1818 31.8759 51.0459 31.6526 50.9422 31.4501C50.5413 30.6964 50.3801 29.5505 50.1579 27.9682C50.0097 26.9015 49.8398 25.6983 49.5566 24.3408C48.9117 21.2202 44.8027 18.3289 44.7635 18.3025C44.7052 18.2615 44.6576 18.2068 44.625 18.1431C44.5923 18.0793 44.5756 18.0084 44.5761 17.9366V15.1643H31.6349C31.3795 18.3726 30.899 21.5584 30.197 24.6978C29.478 27.9549 29.6654 40.0448 29.7613 41.9312C29.7649 42.2614 29.8659 42.583 30.0515 42.8547C30.237 43.1264 30.4986 43.3359 30.8027 43.4562C31.0307 43.5403 31.279 43.5507 31.5131 43.4859C31.7473 43.4212 31.9558 43.2845 32.1099 43.0948C32.6284 42.4998 32.9813 41.0673 33.0292 39.269C33.0292 39.1522 33.0752 39.04 33.1569 38.9574C33.2386 38.8747 33.3494 38.8283 33.465 38.8283C33.5805 38.8283 33.6914 38.8747 33.7731 38.9574C33.8548 39.04 33.9007 39.1522 33.9007 39.269C33.9007 40.4767 33.9007 44.5228 34.2929 45.9553C34.3347 46.1777 34.4218 46.389 34.5485 46.5756C34.6753 46.7622 34.839 46.9202 35.0293 47.0395C35.465 47.2599 36.1012 47.2114 36.9988 46.8852C37.2253 46.8015 37.4345 46.4048 37.5652 45.7966C37.5768 45.6797 37.6338 45.5722 37.7237 45.4978C37.8135 45.4235 37.929 45.3882 38.0445 45.3999C38.1601 45.4116 38.2663 45.4692 38.3399 45.5602C38.4134 45.6511 38.4482 45.7678 38.4367 45.8847C38.4248 46.3943 38.4643 46.9038 38.5543 47.4053C38.6155 47.6495 38.7303 47.8766 38.8903 48.0696C39.0502 48.2627 39.2511 48.4168 39.4781 48.5204C39.7479 48.6268 40.0385 48.6678 40.3268 48.6403C40.615 48.6127 40.8929 48.5174 41.1382 48.3618C41.7875 48.0048 41.9618 46.991 42.0097 46.2065C42.0097 46.0896 42.0556 45.9775 42.1373 45.8948C42.219 45.8122 42.3299 45.7657 42.4454 45.7657L42.3888 45.779Z" fill="black"/>
<path d="M45.0032 49.5738C43.6393 49.5738 42.8245 49.1992 42.3888 48.2075C42.1968 48.5976 41.8931 48.9201 41.5173 49.1331C41.1545 49.3536 40.7458 49.4856 40.3238 49.5185C39.9017 49.5514 39.4779 49.4843 39.0859 49.3226C38.7359 49.166 38.426 48.9305 38.1798 48.6341C37.9336 48.3377 37.7576 47.9882 37.6654 47.6125C37.6654 47.5728 37.6654 47.5332 37.6393 47.4847C37.5264 47.5807 37.3982 47.6567 37.2602 47.7094C36.5369 47.9739 35.4693 48.2692 34.5979 47.8196C34.3 47.6482 34.0413 47.4151 33.8385 47.1356C33.6358 46.8562 33.4937 46.5365 33.4214 46.1977C33.2043 45.2055 33.0832 44.1944 33.0598 43.1785C32.9651 43.3467 32.8557 43.5061 32.733 43.6545C32.4645 43.98 32.1028 44.2133 31.6978 44.3223C31.2928 44.4312 30.8644 44.4104 30.4715 44.2628C30.0026 44.0862 29.5969 43.7712 29.3071 43.3586C29.0173 42.946 28.8567 42.4548 28.8462 41.9488C28.7678 40.0404 28.5761 27.8227 29.3168 24.4818C29.9617 21.5773 30.6807 17.1565 30.7504 14.6927C30.7504 14.5758 30.7963 14.4637 30.878 14.381C30.9597 14.2984 31.0705 14.252 31.1861 14.252H44.9814C45.0969 14.252 45.2078 14.2984 45.2895 14.381C45.3712 14.4637 45.4171 14.5758 45.4171 14.6927V17.7207C46.2886 18.3554 49.7439 21.0748 50.3845 24.1689C50.6627 25.5078 50.8308 26.6941 50.9795 27.7437L50.9945 27.8492L51.0061 27.9312C51.2053 29.3336 51.3624 30.4393 51.6829 31.0446C51.748 31.1666 51.8265 31.302 51.9101 31.4465C51.9777 31.5631 52.0486 31.6855 52.1187 31.8115C52.8768 33.0368 53.9139 34.7205 53.5043 36.4482C53.147 37.9468 52.4542 38.4977 51.9313 38.6917C51.6087 38.7974 51.265 38.8198 50.9316 38.7567C50.5982 38.6935 50.2858 38.5469 50.0228 38.3302C49.2167 37.744 47.9792 35.8929 47.16 34.5839V43.9322V45.1883C47.16 47.467 47.16 48.5072 46.6067 49.0934C46.2624 49.4945 45.7134 49.5738 45.0032 49.5738ZM42.3888 45.779C42.4972 45.7784 42.6019 45.8187 42.6824 45.8921C42.763 45.9654 42.8137 46.0665 42.8245 46.1756C43.038 48.4631 43.6175 48.6923 45.0032 48.6923C45.5783 48.6923 45.8746 48.6262 46.0315 48.4808C46.3496 48.1546 46.3452 47.0439 46.3321 45.2016V43.941V33.0236C46.3288 32.9241 46.3588 32.8264 46.4174 32.7463C46.4759 32.6663 46.5595 32.6087 46.6546 32.5828C46.7467 32.558 46.8442 32.5644 46.9324 32.601C47.0205 32.6376 47.0944 32.7025 47.1426 32.7856C47.7918 33.9051 49.6699 36.9551 50.5718 37.6074C50.7211 37.7362 50.8988 37.8266 51.0899 37.8711C51.2811 37.9156 51.48 37.9129 51.6699 37.863C52.1274 37.6912 52.4934 37.1138 52.6982 36.2367C53.025 34.8703 52.1012 33.3674 51.4215 32.2699C51.3894 32.2169 51.3575 32.1644 51.3259 32.1126C51.1818 31.8759 51.0459 31.6526 50.9422 31.4501C50.5413 30.6964 50.3801 29.5505 50.1579 27.9682C50.0097 26.9015 49.8398 25.6983 49.5566 24.3408C48.9117 21.2202 44.8027 18.3289 44.7635 18.3025C44.7052 18.2615 44.6576 18.2068 44.625 18.1431C44.5923 18.0793 44.5756 18.0084 44.5761 17.9366V15.1643H31.6349C31.3795 18.3726 30.899 21.5584 30.197 24.6978C29.478 27.9549 29.6654 40.0448 29.7613 41.9312C29.7649 42.2614 29.8659 42.583 30.0515 42.8547C30.237 43.1264 30.4986 43.3359 30.8027 43.4562C31.0307 43.5403 31.279 43.5507 31.5131 43.4859C31.7473 43.4212 31.9558 43.2845 32.1099 43.0948C32.6284 42.4998 32.9813 41.0673 33.0292 39.269C33.0292 39.1522 33.0752 39.04 33.1569 38.9574C33.2386 38.8747 33.3494 38.8283 33.465 38.8283C33.5805 38.8283 33.6914 38.8747 33.7731 38.9574C33.8548 39.04 33.9007 39.1522 33.9007 39.269C33.9007 40.4767 33.9007 44.5228 34.2929 45.9553C34.3347 46.1777 34.4218 46.389 34.5485 46.5756C34.6753 46.7622 34.839 46.9202 35.0293 47.0395C35.465 47.2599 36.1012 47.2114 36.9988 46.8852C37.2253 46.8015 37.4345 46.4048 37.5652 45.7966C37.5768 45.6797 37.6338 45.5722 37.7237 45.4978C37.8135 45.4235 37.929 45.3882 38.0445 45.3999C38.1601 45.4116 38.2663 45.4692 38.3399 45.5602C38.4134 45.6511 38.4482 45.7678 38.4367 45.8847C38.4248 46.3943 38.4643 46.9038 38.5543 47.4053C38.6155 47.6495 38.7303 47.8766 38.8903 48.0696C39.0502 48.2627 39.2511 48.4168 39.4781 48.5204C39.7479 48.6268 40.0385 48.6678 40.3268 48.6403C40.615 48.6127 40.8929 48.5174 41.1382 48.3618C41.7875 48.0048 41.9618 46.991 42.0097 46.2065C42.0097 46.0896 42.0556 45.9775 42.1373 45.8948C42.219 45.8122 42.3299 45.7657 42.4454 45.7657L42.3888 45.779Z" stroke="black"/>
<path d="M42.4064 46.6598C42.2909 46.6598 42.18 46.6134 42.0983 46.5307C42.0166 46.448 41.9707 46.3359 41.9707 46.219V33.64C41.9707 33.5231 42.0166 33.411 42.0983 33.3283C42.18 33.2457 42.2909 33.1992 42.4064 33.1992C42.522 33.1992 42.6328 33.2457 42.7145 33.3283C42.7963 33.411 42.8422 33.5231 42.8422 33.64V46.219C42.8422 46.3359 42.7963 46.448 42.7145 46.5307C42.6328 46.6134 42.522 46.6598 42.4064 46.6598Z" fill="black"/>
<path d="M42.4064 46.6598C42.2909 46.6598 42.18 46.6134 42.0983 46.5307C42.0166 46.448 41.9707 46.3359 41.9707 46.219V33.64C41.9707 33.5231 42.0166 33.411 42.0983 33.3283C42.18 33.2457 42.2909 33.1992 42.4064 33.1992C42.522 33.1992 42.6328 33.2457 42.7145 33.3283C42.7963 33.411 42.8422 33.5231 42.8422 33.64V46.219C42.8422 46.3359 42.7963 46.448 42.7145 46.5307C42.6328 46.6134 42.522 46.6598 42.4064 46.6598Z" stroke="black"/>
<path d="M37.9797 46.3292C37.8641 46.3292 37.7533 46.2828 37.6716 46.2001C37.5899 46.1175 37.5439 46.0054 37.5439 45.8885V33.64C37.5439 33.5231 37.5899 33.411 37.6716 33.3283C37.7533 33.2457 37.8641 33.1992 37.9797 33.1992C38.0952 33.1992 38.2061 33.2457 38.2878 33.3283C38.3695 33.411 38.4154 33.5231 38.4154 33.64V45.8885C38.4154 46.0054 38.3695 46.1175 38.2878 46.2001C38.2061 46.2828 38.0952 46.3292 37.9797 46.3292Z" fill="black"/>
<path d="M37.9797 46.3292C37.8641 46.3292 37.7533 46.2828 37.6716 46.2001C37.5899 46.1175 37.5439 46.0054 37.5439 45.8885V33.64C37.5439 33.5231 37.5899 33.411 37.6716 33.3283C37.7533 33.2457 37.8641 33.1992 37.9797 33.1992C38.0952 33.1992 38.2061 33.2457 38.2878 33.3283C38.3695 33.411 38.4154 33.5231 38.4154 33.64V45.8885C38.4154 46.0054 38.3695 46.1175 38.2878 46.2001C38.2061 46.2828 38.0952 46.3292 37.9797 46.3292Z" stroke="black"/>
<path d="M33.4621 39.7048C33.3465 39.7048 33.2357 39.6583 33.154 39.5757C33.0723 39.493 33.0264 39.3809 33.0264 39.264V33.2962C33.0264 33.1793 33.0723 33.0672 33.154 32.9846C33.2357 32.9019 33.3465 32.8555 33.4621 32.8555C33.5777 32.8555 33.6885 32.9019 33.7702 32.9846C33.8519 33.0672 33.8978 33.1793 33.8978 33.2962V39.264C33.8978 39.3809 33.8519 39.493 33.7702 39.5757C33.6885 39.6583 33.5777 39.7048 33.4621 39.7048Z" fill="black"/>
<path d="M33.4621 39.7048C33.3465 39.7048 33.2357 39.6583 33.154 39.5757C33.0723 39.493 33.0264 39.3809 33.0264 39.264V33.2962C33.0264 33.1793 33.0723 33.0672 33.154 32.9846C33.2357 32.9019 33.3465 32.8555 33.4621 32.8555C33.5777 32.8555 33.6885 32.9019 33.7702 32.9846C33.8519 33.0672 33.8978 33.1793 33.8978 33.2962V39.264C33.8978 39.3809 33.8519 39.493 33.7702 39.5757C33.6885 39.6583 33.5777 39.7048 33.4621 39.7048Z" stroke="black"/>
<path d="M47.1696 1.82666V14.7319H29.9756V2.46135C33.2481 1.6004 36.616 1.16641 39.9974 1.16994C42.4028 1.17075 44.8032 1.39055 47.1696 1.82666Z" fill="#6474FF"/>
<path d="M47.169 15.1676H29.975C29.8594 15.1676 29.7486 15.1212 29.6669 15.0385C29.5852 14.9559 29.5393 14.8438 29.5393 14.7269V2.45634C29.5361 2.35625 29.5668 2.25806 29.6262 2.17795C29.6856 2.09784 29.7702 2.04057 29.8661 2.01559C35.54 0.532891 41.4646 0.314831 47.23 1.3765C47.3315 1.39527 47.4231 1.44988 47.4886 1.53059C47.554 1.6113 47.589 1.71288 47.5873 1.81725V14.7269C47.5874 14.8408 47.5439 14.9503 47.4659 15.0325C47.3879 15.1146 47.2815 15.1631 47.169 15.1676ZM30.4107 14.2861H46.7158V2.19189C41.2981 1.24587 35.7449 1.45302 30.4107 2.80012V14.2861Z" fill="black"/>
<path d="M45.0019 12.5126L45.0039 11.7622C45.0045 11.5667 44.8482 11.4078 44.655 11.4072L35.2699 11.3811C35.0766 11.3806 34.9195 11.5386 34.919 11.7341L34.917 12.4845C34.9164 12.68 35.0727 12.8389 35.2659 12.8394L44.651 12.8655C44.8443 12.8661 45.0014 12.708 45.0019 12.5126Z" fill="white"/>
<path d="M72.4097 55.6988L71.8825 55.1709C71.7451 55.0334 71.5236 55.0345 71.3876 55.1734L64.7852 61.9202C64.6493 62.0592 64.6504 62.2833 64.7877 62.4208L65.315 62.9487C65.4523 63.0862 65.6739 63.0851 65.8098 62.9462L72.4122 56.1994C72.5482 56.0604 72.5471 55.8363 72.4097 55.6988Z" fill="white"/>
<path d="M9.84712 54.8882L10.3744 54.3603C10.5117 54.2228 10.7333 54.224 10.8692 54.3629L17.4716 61.1097C17.6076 61.2486 17.6064 61.4727 17.4691 61.6103L16.9419 62.1382C16.8045 62.2757 16.583 62.2745 16.447 62.1356L9.84461 55.3888C9.70865 55.2499 9.70978 55.0258 9.84712 54.8882Z" fill="#7CC0FF"/>
<path d="M33.4338 12.3368L33.437 11.5877C33.4378 11.3926 33.2821 11.2337 33.0892 11.2329L32.3486 11.2297C32.1557 11.2288 31.9986 11.3863 31.9978 11.5815L31.9946 12.3306C31.9938 12.5257 32.1495 12.6846 32.3425 12.6854L33.083 12.6886C33.2759 12.6894 33.433 12.5319 33.4338 12.3368Z" fill="white"/>
<path d="M64.1708 63.9193L63.6453 63.3915C63.5084 63.254 63.2873 63.2548 63.1513 63.3933L62.6296 63.9249C62.4936 64.0634 62.4944 64.2871 62.6313 64.4246L63.1568 64.9524C63.2937 65.0899 63.5149 65.0891 63.6508 64.9506L64.1726 64.419C64.3085 64.2805 64.3078 64.0568 64.1708 63.9193Z" fill="white"/>
<path d="M18.086 63.1049L18.6115 62.5771C18.7484 62.4396 18.9696 62.4404 19.1055 62.5789L19.6273 63.1104C19.7632 63.2489 19.7624 63.4726 19.6255 63.6101L19.1 64.1379C18.9631 64.2754 18.7419 64.2746 18.606 64.1361L18.0842 63.6046C17.9483 63.4661 17.9491 63.2424 18.086 63.1049Z" fill="#7CC0FF"/>
</svg>
